<?xml version="1.0" encoding="utf-8"?>
<!-- Generator: Adobe Illustrator 18.1.1, SVG Export Plug-In . SVG Version: 6.00 Build 0)  -->
<svg version="1.1" id="Слой_1" xmlns="http://www.w3.org/2000/svg" xmlns:xlink="http://www.w3.org/1999/xlink" x="0px" y="0px"
	 viewBox="0 0 1024 618.856" enable-background="new 0 0 1024 618.856" xml:space="preserve">
<path fill="#000000"      d="
	M571.09,122.606c0,0-15.431-2.058-21.604,4.115c0,0-9.773-16.974-18.003-16.974c0,0-9.259-20.061-24.69-26.233
	c0,0-11.831-14.403-19.546-15.946c0,0-2.572-18.003-15.431-24.176c0,0-8.744-16.974-27.262-19.546c0,0-8.744-9.259-24.69-8.744
	c0,0-13.374-12.859-25.204-7.201l-4.629,3.086c0,0-13.888-3.086-23.147-1.029c0,0-4.115,1.029-15.431,13.888
	c0,0-15.431,0.514-23.147,13.374c0,0-11.831,26.233-16.974,40.121c0,0,6.173,4.629-30.863,9.773c0,0-58.639,9.773-101.847,34.463
	l-62.754,24.677c0,0-32.406,6.185-43.208,16.987c0,0-38.578,36.006-43.208,49.895c0,0-7.201,2.572-14.403,12.859
	c0,0-8.744,5.144,2.572,19.032c0,0-15.431-2.058-10.288,17.489c0,0-1.029,12.345,10.802,15.946c0,0,29.319,16.46,36.006,27.262
	c0,0,15.946,25.719,30.863,32.406c0,0,12.859,27.776,120.364,103.904c0,0-9.259,62.24,20.575,71.498c0,0,19.032,6.173,28.805,26.233
	c0,0-0.572,9.773,32.348,16.46c0,0,25.261,35.387,53.561,30.396c0.852-0.15,1.706-0.337,2.563-0.563
	c29.319-7.716,30.863-17.489,34.463-22.118c0,0,7.716-26.233,13.888-30.863c0,0,7.716-7.201-3.601-40.121
	c0,0-18.518-28.805-29.319-29.319c0,0,103.39,4.115,129.109-1.029c0,0-6.687,16.46,85.901,67.898c0,0,14.403,1.029,27.776,14.403
	c0,0,12.859,10.802,27.262,13.374c0,0,17.489,12.859,21.089-5.658c0,0,14.917-38.578,11.831-65.326c0,0,2.26-36.619,17.801-41.197
	c1.036-0.305,2.131-0.468,3.288-0.468c18.518,0,50.409,8.23,62.24,30.863c0,0,20.061,78.7,36.521,97.732
	c0,0,27.262,45.78,72.013,37.035c0,0,23.661-4.629,36.521-13.888c0,0,26.748-1.543,42.693-23.147c0,0,40.121-20.575,48.351-38.064
	c0,0,26.233-25.719,30.863-57.61c0,0,15.946-75.613-14.917-103.39c0,0-37.549-46.808-129.623-47.323c0,0-25.204,0-43.722,6.173
	c0,0-46.294,5.844-88.987-24.597c0,0-14.917-10.895,5.658-11.924c0,0,16.46,0,20.061-2.572c0,0,0.514-23.661,7.716-37.035
	c0,0,25.719-44.236,25.719-61.725c0,0,6.173-34.463-15.025-53.589c-24.293-21.918-51.844-35.513-51.844-35.513
	s-25.719-10.687-62.754-5.029c0,0-24.69,3.086-41.664-1.029C622.528,101.002,598.866,90.715,571.09,122.606z"/>
</svg>
