<?xml version="1.0" encoding="utf-8"?>
<!-- Generator: Adobe Illustrator 21.1.0, SVG Export Plug-In . SVG Version: 6.00 Build 0)  -->
<svg version="1.1" id="Layer_1" xmlns="http://www.w3.org/2000/svg" xmlns:xlink="http://www.w3.org/1999/xlink" x="0px" y="0px"
	 width="387px" height="259px" viewBox="0 0 387 259" style="enable-background:new 0 0 387 259;" xml:space="preserve">
<path d="M372.5,27.3c-17.3,1.3-37.4,13.4-50.8,20.2l-13.8,6.6c3.5-5.5,9.9-7.7,15.2-11.2c8.8-6.1,17.4-12.1,26.2-18.2
	c4-2.9,8.1-6.1,12.1-9c-7.2,1.5-13.9,6.1-19.6,9.5c-16.3,9.7-31.6,20.7-49,28.8c3.5-4.6,8.8-8.6,13.4-12.3c9.7-7.9,20-17.1,27.9-27
	c2.6-3.1,6.1-6.1,7.7-9.9c-5.7,3.1-10.1,7.7-15,11.6C312,28,299.3,42.7,283.2,52.8c8.4-11.4,18-21.8,21.8-38c-7.7,5.9-13,16-18.7,24
	c-6.4,9.2-13.4,18-20.4,26.6c-8.8,10.8-23.5,16.9-35.4,24.4c-3.9,2.8-7.7,5.5-11.7,8.3c-1.5,1.3-2.9,2.8-4.4,4
	c-2.4,1.3-4.6,1.3-6.6,2.8c-7.2,5.1-9.2,17.4-17.3,21.1l-0.6,0.6c-2.2-2.4-4.4-4.8-6.6-7c-5.9-4.8-14.1-10.5-21.5-13.4
	c0.2-1.3,0.4-2.8,0.6-4c-2.2-1.7-6.6-3.3-10.3-3.3l-0.2-0.2c0.4-1.7,0.9-2.6,0.7-4.4h-0.6c-1.7-1.5-7.2-2.6-10.3-1.7h0.2v-5.5
	c-3.1-0.7-7.3-1.3-11-0.7c0.7-3.7-1.1-5.3-1.7-8.3c-8.6-0.4-12.8,2.2-18.2,5.3l-0.2-0.2c-0.7-4.2,2.6-7,3.9-10.1
	c-1.1-0.7-2.8-0.7-4.6-0.7c-5.9,0-11.4,2.6-14.9,5.3c-2.4,1.8-3.9,5.1-7.3,6.1h-1.3c0.9-4.6,2.6-9.7,4.4-13.6
	c-7.7-5.9-17.6,5.7-21.7,8.8c0-5.1,2-10.6,0.7-15.6v-0.7c-12.5-1.5-11.2,7.5-14.5,16.5v0.6h-0.2c-2.9-9.7-5.9-19.6-12.7-25.7
	c-0.2,0-0.6-0.2-0.7-0.2c-5.9,9-1.1,22,0.9,32.3c-2.4-2-3.3-5.7-4.8-8.4c-4.8-9.4-8.4-20.4-17.8-25.5c-6.1,10.1,5.7,24.4,7,33.2
	c-4.8-3.5-5.7-10.8-14.1-9.9c-1.3,4.8,2.4,9,4.2,11.9c5.9,9.7,14.3,15.4,24,21.3c9.7,5.5,19.3,11,29,16.5
	c17.3,12.1,35.6,33,41.3,56.2c-6.4,7.5-18.5,9.4-24.6,17.4c-2.4,3.1-3.7,7.2-4.4,11.9v4.4c-2.4,6.1-7.3,14.3,2.8,17.3
	c-0.9-7,2.4-4.8,6.2-7.3c1.1-1.3,2.2-2.4,3.5-3.7c4.4-2.9,13.8-4.6,21.1-3.1c17.1,3.1,28.3,12.3,45.1,15.6
	c18.5,3.5,39.8-2.6,59.1-2.4c0.7,9.7,8.3,16.9,15.8,19.8c6.6,2.6,14.5-0.2,16.5-5.1l0.6-0.6l-0.2-0.2c-1.5,0-2.9-0.2-4.4-0.2
	c-0.2,0-0.6-0.2-0.7-0.2c0.9-4.4,0.6-7-0.9-10.8c0.2-0.9,0-0.7,0.6-1.3c1.1-0.7,2.4,0,3.9,0.2h0.2c0-2.4-0.2-4.8-0.2-7
	c3.1,0.6,6.2,1.1,9.5,1.7c0.4-0.2,0.7-0.4,0.9-0.6c0-0.4,0.2-0.7,0.2-0.9c-0.9-1.3-2.2-2-2.4-3.9c2.6-2.8,12.8,4.4,17.8-0.9
	c7.9,1.8,16.3,10.5,27,7v-2.8c0.7-1.1,1.7-1.3,3.1-0.7c1.3-1.8-2.4-3.5-4.4-3.7c0.7-1.3,1.8-1.7,3.7-2c-1.5-1.7-5-2.4-7.5-2.9
	c-0.2-0.4-0.6-0.7-0.7-0.9c1.3-0.6,2.4-0.9,3.7-1.5c-2.2-2.2-8.3-2.8-11.7-3.7c0.9-1.5,2.6-1.8,4.8-2v-0.2c-4-0.7-7.9-1.3-11.9-2
	c-12.5-2-25.7,0-34.5-5.3c-2.4-1.5-3.7-3.7-5.5-5.5c-1.3-1.1-7.7-0.7-9.7-2.2c0-0.2-0.2-0.6-0.2-0.7c5.9,0.9,10.8-0.6,16.3-0.9
	c0.2-2.9-0.7-3.9-2-5.9v-2.4c10.8,1.8,11.2-13.2,4.2-16c0-0.2-0.2-0.4-0.2-0.6c2.6-0.7,5.5-0.4,8.8-0.6c0-1.3,0.2-2.4,0.2-3.7
	c1.5-2.6,4.2-2.2,4.4-6.6h4.6c1.3-5.1,7.2-2.9,7.3-9.7c2.6,1.3,7,0,5.3-3.9c1.8,0.4,3.7,0,5.3-0.2c0.9-1.1,1.3-1.7,1.3-3.9
	c2.9,0.9,5-0.2,7-1.3c0.2-2.6,0-4.6-1.7-5.3c0-0.4,0.2-0.7,0.2-0.9h6.1c0.6-0.6,1.8-5,2.8-6.1c3.1-4,9.5-5.9,10.6-12.1
	c5.1,0,9.2-2,9.2-7.3c7,0,11.7-4.8,11.9-11.6c6.4-1.8,10.1-3.7,9.9-11.9c11.4-0.2,12.5-8.3,17.4-14.5c1.8-1.1,3.5-2.2,5.3-3.3h0.6
	v-0.9c-6.1-1.5-14.3-0.9-20.4,0v-0.2c5.9-2.4,14.1-4.6,21.5-5.9c-3.7-4-17.6-2-24-2v-0.2c7.3-2,20.7-5.3,26.2-9.5h0.6
	c-4.6-1.8-13,0.4-16.7,1.3c-13.4,2.9-24.8,6.4-36.7,10.8c18-9.9,35.8-19.8,53.8-29.7C372.5,27.5,372.5,27.5,372.5,27.3L372.5,27.3z
	 M89.7,213c-1.3,0-2.4-1.1-2.4-2.4s1.1-2.4,2.4-2.4s2.4,1.1,2.4,2.4C92.1,212.1,91,213,89.7,213z"/>
</svg>
