<?xml version="1.0" encoding="utf-8"?>
<!-- Generator: Adobe Illustrator 21.1.0, SVG Export Plug-In . SVG Version: 6.00 Build 0)  -->
<svg version="1.1"
	 id="svg2" inkscape:version="0.44" sodipodi:docbase="/home/bruno/data/imagens/icons" sodipodi:docname="1_1_43_3.svg" sodipodi:version="0.32" xmlns:cc="http://web.resource.org/cc/" xmlns:dc="http://purl.org/dc/elements/1.1/" xmlns:inkscape="http://www.inkscape.org/namespaces/inkscape" xmlns:rdf="http://www.w3.org/1999/02/22-rdf-syntax-ns#" xmlns:sodipodi="http://sodipodi.sourceforge.net/DTD/sodipodi-0.dtd" xmlns:svg="http://www.w3.org/2000/svg"
	 xmlns="http://www.w3.org/2000/svg" xmlns:xlink="http://www.w3.org/1999/xlink" x="0px" y="0px" width="511px" height="340px"
	 viewBox="0 0 511 340" style="enable-background:new 0 0 511 340;" xml:space="preserve">
<sodipodi:namedview  bordercolor="#666666" borderopacity="1.0" gridtolerance="10.0" guidetolerance="10.0" id="base" inkscape:current-layer="svg2" inkscape:cx="255.5" inkscape:cy="226.40106" inkscape:pageopacity="0.0" inkscape:pageshadow="2" inkscape:window-height="789" inkscape:window-width="1042" inkscape:window-x="5" inkscape:window-y="73" inkscape:zoom="0.83480176" objecttolerance="10.0" pagecolor="#ffffff">
	</sodipodi:namedview>
<path id="path12" d="M483.3,191.2c-0.3-1.6-0.3-3.4-0.2-5c0-1.1,0-2.1,0-3.1c0-1,0-2.1,0-3.1c-0.2-1.9,0-3.9,0.3-5.8
	c1-5.2,1.6-10,1.9-15c0.3-3.5,0.5-7.1,0.6-10.6l0.3-5.5l1-7.6l1-9.7c0.2-0.6,0.2-1.3,0.2-1.8c0-0.6,0-1.3-0.2-1.8l-1-9.3
	c1,4.4,1.9,8.7,2.4,13.1l2.4,15.8l0.2,2.1l0.5,4.5l0.3,3.4v5.2l-0.2,4.5l0.5,7.7l0.5,9.7l0.5,7.3l-0.2,12.3l-0.3,4.4l-0.3,3.9
	l-0.8,4.8c0,1,0.2,2.1,0.2,3.1c0,1.3-0.2,2.7-0.2,4.2c0,0.2,0,0.3,0,0.5c0,1,0.2,1.9,0.3,2.7c0.6,1.8,1,3.5,1.1,5.5
	c0.3,1.9,0.5,3.9,1,5.8s0.8,3.9,0.8,6l0.2,4c0,0.8,0.5,1.6,1.1,1.9c1,0.6,2.3,1.1,3.5,1.1c0.2,0,0.3,0.2,0.5,0.2
	c1,0,1.8-0.3,2.6-0.6c1.6-0.5,2.4-1.9,2.4-3.5v-8.1c0-3.5-0.3-7.1-1-10.6c-0.5-2.9-0.5-6-0.2-9c0.2-0.8,0.3-1.8,0.6-2.7
	c0.2-1,0.2-1.9,0.2-3.1l0,0c0-0.8-0.2-1.6-0.6-2.1c-1-1.3-1.6-2.4-2.1-3.9c-0.8-1.8-1.5-3.5-1.9-5.5c-0.5-1.5-0.8-3.1-0.6-4.7
	c0.2-2.6,0.2-5.2,0.2-7.7v-0.2c0-3.4,0.3-6.8,0.8-10.2c0.5-2.9,0.8-6,0.8-9v-20.3l0.3-25.8l-0.3-11.4c-0.2-1.9-0.2-3.9-0.3-5.8
	c-0.2-6.3-1.3-12.3-3.4-18.1c-2.1-5.6-5-10.6-9-15.2c-3.7-4-7.7-7.7-12.3-11c-2.9-2.1-6-3.9-9.2-5.2c-4.7-1.9-9.7-3.7-14.7-5
	c-3.4-1-6.8-1.5-10.3-1.6c-2.4-0.2-5.5-0.2-8.4-0.3c-1.9,0-2.7,0-3.4,0c-4.8,0-9.5,0.3-14.2,1.1c-2.3,0.5-4.4,0.8-6.6,1.1
	c-3.2,0.5-6.3,0.8-9.3,1.1c-7.6,0.8-15.3,1.5-23.1,1.9c-13.5,0.6-28.4,1.9-43.4,3.4c-6.3,0.8-11.4,1.3-16.6,1.6
	c-1.3,0.2-3.5,0.3-5.6,0.5c-2.4,0.2-4.2,0.2-6-0.2c-1.5-0.2-2.9-0.3-4.5-0.5c-5.5-0.8-10.8-1.1-16.1-1.1c-14.2,0-28.5-1-42.7-3.1
	c-15.6-2.3-30.9-3.5-46.6-3.5c-0.6,0-1.1,0-1.5,0c-4,0-8.1,0-11.9,0.3c-4.2,0.3-8.7,0.8-13.2,1.3c-4,0.5-8.4,0.8-12.9,1.1
	c-5.6,0.5-10.8,0.6-16,0.5c-3.7-0.2-7.4-0.5-11.3-0.8c-4.2-0.3-8.4-1.1-12.6-2.3c-5-1.3-10-2.9-14.8-5c-1.9-0.6-3.7-1.6-5.5-2.6
	l-2.9-1.8l1.3-3.1c0.5-0.5,0.6-1.1,0.6-1.9c0-0.2,0-0.3,0-0.5c-0.3-1.3-1-2.3-2.3-2.7c-1.5-0.5-3.1-1.1-4.8-1.6
	c-1.1-0.5-2.4-1-3.5-1.5c-1.6-0.8-3.4-1.5-5.2-1.8c-1.8-0.3-3.4-1.3-4.5-2.7l-6.4-7.9c-0.3-0.3-0.6-0.5-1-0.6c-0.2,0-0.3,0-0.5,0
	c-0.5,0-0.8,0.3-1.1,0.8c-0.2,0.5-0.2,1-0.2,1.5s0,1,0.2,1.3l0.8,1.9l1.6,4.4l1.9,5.2h-0.2c-2.7,0.2-5.2,0.8-7.4,1.9
	c-1.1,0.6-2.9,1.6-4.5,2.6c-2.3,1.1-3.5,2.3-4.7,3.7c-0.5,0.5-1,1-1.6,1.3c-0.8,0.5-1.8,0.6-2.7,0.3c-1.5-0.3-2.9-1.3-3.9-2.6
	l-7.1-9.2c-0.5-0.5-1-0.8-1.6-0.8c-0.2-0.2-0.3-0.2-0.3-0.2c-0.6,0-1.1,0.3-1.5,0.8c-0.3,0.6-0.5,1.3-0.5,1.9c0,0.3,0,0.8,0.2,1.3
	l1.1,2.6l2.1,5.2l1.6,3.2l1.8,2.4l1.3,1.9l2.7,4.7c0.2,0.3,0.3,0.6,0.3,1c0,0.5-0.2,0.8-0.5,1.1c-1.1,1.5-2.4,2.9-3.9,4.4
	c-1.1,1.1-2.6,1.9-4,2.3c-1.8,0.5-3.2,1.9-3.7,3.7c-0.5,1.6-1,3.4-1.1,5c-0.3,2.7-1.6,5.2-3.4,7.1c-1.5,1.3-2.6,2.7-3.5,4.4
	c-1.6,2.4-3.2,4.8-5.2,7.1c-1.5,1.8-2.6,3.9-3.5,5.8c-1,2.4-2.3,4.7-4,6.4l-10.2,11c-0.2,0.8-0.3,1.6-0.3,2.4c0,0.6,0,1.1,0.2,1.6
	c0.3,2.3,1,4.5,1.6,6.6c0.6,1.8,1.6,3.2,2.7,4.7c1.1,1.3,2.3,2.6,3.7,3.7c1.5,1.1,3.2,2.1,5,2.7c0.8,0.2,1.6,0.3,2.4,0.3
	c1.3,0,2.6-0.3,3.7-1c1.1-0.6,2.3-1,3.5-1.3c1.8-0.5,3.7-0.5,5.6-0.2c2.7,0.5,5.2,1,7.4,1.5c-0.8-0.2,0.5-0.2,1.8-0.2
	c1.3,0,2.7-0.2,4.2-0.3c2.4-0.6,4.8-1.1,7.1-1.5c1.3-0.3,3.4-1,5.3-1.8c1.5-0.6,3.1-0.6,4.7-0.2c1.8,0.6,3.5,1.5,5.3,2.4
	c4,2.3,8.4,3.7,12.9,4.5c1.6,0.3,3.2,0.6,4.7,1c2.1,0.3,4.7,0.6,7.1,0.6c1.8,0.2,3.5,0.5,5.3,1.3c3.2,1.6,6.1,4,8.2,7.1
	c2.7,4,5.2,8.2,7.3,12.7c1.6,3.4,3.5,6.9,5.5,10.3c1.5,2.4,2.7,5.3,3.9,8.2c1.6,4,3.2,7.6,5,11.3c1.1,2.6,2.3,5.2,3.2,7.9
	c0.3,0.8,0.8,1.6,1.3,2.3c4.5,6.1,10.6,10.6,17.7,12.9l4.4,1.5l-4.5,4l-9.2,8.2l-4.8,4.7l-3.9,4.2c-1.1,1.8-2.3,3.7-3.7,5.5
	c-1.1,1.8-2.1,3.2-2.7,4.8c-0.6,1.5-1,2.9-1,4.5c0,0.6,0.2,1.3,0.2,1.9c0.5,2.4,1.5,4.7,2.6,6.8l2.4,4l2.9,3.9l8.7,8.2l3.9,3.9
	l3.5,3.7l1.9,2.4l5.8,7.3l10.2,10.8l5.3,5l4.2,3.2l3.4,2.3l2.4,1.1l1.3,0.2c1.5,3.7,3.9,7.1,6.8,9.7c1.1,1.1,2.6,1.9,4.2,2.3
	c1.5,0.3,2.7,0.6,4.2,1c0.3,0,0.6,0,1,0c0.6,0,1.1,0,1.8-0.2l1-0.3l-7.6-26c-0.3-1-1-1.8-2.1-1.9l-6.9-1.6c-0.6-0.3-1-1-0.8-1.5
	c0.5-1.5,1-2.9,1.5-4.4c0.2-0.3,0.3-1,0.3-1.5c0-1.5-0.8-2.7-2.1-3.4c-1.1-0.6-2.4-1.1-3.7-1.6c-1.8-0.3-3.4-1.3-4.8-2.3
	c-1.9-1.5-3.9-2.9-5.8-4.5c-2.6-2.1-4.8-4.8-6.4-7.7c-1.5-2.7-2.9-5.5-4.5-8.1c-1.5-2.6-2.1-4.8-2.4-7.3c-0.3-2.6,0.3-5.2,1.9-7.4
	c1.6-2.3,3.9-4.2,6.3-5.3c3.1-1.5,6.1-2.9,9.2-4.4c2.7-1.3,5.5-2.6,8.4-3.7c2.7-1,5.2-2.4,7.6-4c1.6-1.3,3.2-2.3,5-3.2
	c3.5-2.3,6.3-5.2,8.4-8.9l1-1.8l4,8.2l1.6,3.5l1.3,2.7l2.6,3.7l3.2,4.7l4.8,6.9l4,6.4l4.4,7.1l2.1,3.4l6.1,10.8l2.4,4.7l3.1,6.1
	l1.6,3.7l1.1,3.4c0.8,1.8,1.3,3.5,1.6,5.5c0.2,1.5,0.5,2.9,0.8,4.5c0,0.6,0.2,1.3,0.2,1.9c0,2.3-0.8,4.4-2.4,6l-5.2,5.8l-0.8,1.3
	c-5,1.3-8.7,5.5-9.5,10.6l-0.2,1.1h27.6c2.3-2.4,3.5-5.5,3.5-8.7c0-1.9-0.5-3.9-1.3-5.6l-0.8-1.5c-0.2-0.6,0.2-1.1,0.6-1.1l0,0h3.2
	c2.1-0.3,3.4-2.1,3.4-4c0-0.3,0-0.5-0.2-0.8l-1.3-6.4l-2.3-7.9l-2.6-9.5l-2.6-8.9l-1.6-6.4l-1.5-6l-1-3.9l-1-3.9l-0.6-3.5l-0.8-3.7
	l-0.6-2.7l-1.8-6.8c-1-3.1-2.1-6.3-2.9-9.3c-1.3-4.7-3.1-9.3-5.3-13.5l-1.5-2.7l12.6-0.3c1,0,1.8,0,2.7,0c3.5,0,7.4,0,11.1-0.3
	c6-0.3,12.3,0.2,18.4,1.6c8.7,1.8,17.4,2.7,26.3,2.9c1,0.2,1.8,0.2,2.7,0.2c9.7,0,19.2-1,28.5-2.9c6.6-1.3,11.4-2.3,16.3-3.2l1-0.2
	c3.5,2.9,7.4,5.5,11.6,7.4l0.5,0.3l-2.3,12.7c0.2,2.6,2.3,4.7,4.8,4.7c2.1,0,4-1.1,4.7-3.1l4-10.6l6,1.3l-1.5,10.5c0,0.3,0,0.6,0,1
	c0,1,0.2,1.9,0.6,2.7c0.8,1.3,1.9,1.9,3.4,2.1c0.3,0,0.5,0,0.6,0c1,0,1.9-0.2,2.9-0.3c1.3-0.3,2.4-1.3,2.6-2.7l2.3-11.8l5.5,0.3
	c0.3,2.1,0.5,4.4,0.5,6.6c0,0.3,0,0.6,0,1c0,3.2-0.3,6.3-0.6,9.5c-0.3,2.7-1,5.3-1.9,7.7c-2.3,5.2-4.8,10.5-7.7,15.5l-1.9,3.4
	l-3.5,6.3c-1.5,3.4-3.5,6.4-6,9.2l-1.9,2.3l-2.3,2.3l-5.8,4.8l-4.5,3.9l-5.6,4.7c-0.6,0.5-1.3,1.1-1.9,1.6
	c-3.7,3.4-6.6,7.6-8.5,12.1l-0.5,1.5c-2.4,1-4.7,2.3-6.6,3.7c-2.4,2.1-4.4,4.5-5.6,7.4l-0.6,1.5h25.1h2.3l0.6-0.2l7.9-14.7
	c0.2-0.5,0.6-0.8,1.1-0.8c0.3,0,0.6,0.2,0.8,0.3l2.1,1.8c0.3,0.3,0.8,0.6,1.1,0.6s0.5-0.2,0.6-0.2c0.8-0.5,1.6-1,2.3-1.6l0.8-1
	l3.1-3.5l2.4-3.2l8.7-14.7c1.3-1.9,2.4-3.5,3.5-5.2s2.9-3.5,5-5.2l4.5-3.4l17.1-12.7c0.6-0.8,1.3-1.8,1.5-2.9l4.8-21l1-3.7l2.3-5.5
	l2.4-4.2l1.9-1.9c2.6,5,6,9.7,9.7,13.7c2.3,2.4,4.4,4.5,6.4,6.6c2.6,2.7,4.8,5.6,6.6,9c3.5,6.8,6.1,14.3,7.6,21.9
	c0.8,4.2,1.5,8.4,2.3,12.6c0.2,1.6,0.3,3.5,0.3,5.5c0,1.9-0.2,3.9-0.5,5.8c-0.2,1.3-0.6,2.4-1.5,3.4s-1.6,2.1-2.3,3.2
	c-0.5,0.8-0.6,1.8-0.8,2.9l-0.2,3.1l-3.1,3.2l-3.2,2.9c-1.1,1.6-1.8,3.2-2.1,5l-0.6,3.7h27.4l2.6-4.4c0.6-1,0.8-2.1,0.8-3.2
	c0-0.5,0-1.1-0.2-1.6c-0.2-1-0.6-2.1-1.3-3.1c-0.3-0.6-0.6-1.5-1-2.3c-0.3-1-0.5-1.9-0.6-2.9c0-0.6,0.2-1.3,0.5-1.8
	c0.5-0.6,1.1-1,1.8-1.1l3.1-0.6c0.5,0,0.8-0.3,1.1-0.6c0.6-0.8,1-1.8,1-2.7c0-0.6-0.2-1.3-0.3-1.8c-0.3-0.6-0.5-1.3-0.6-1.9
	c-0.8-6-1.9-12.4-3.2-18.7l-1-5.3l-1.8-13.2c-0.3-1.8-0.8-3.9-1-6c-0.3-2.3-0.3-4.4,0.2-6.4c0.8-3.9,1.5-7.9,1.9-11.9
	c0.5-3.7,1-7.3,1.5-10.8c0.2-1,0.2-1.9,0.2-3.1c0-0.8,0-1.8,0-2.6c-0.3-2.7-1.3-5.3-2.7-7.4c-0.6-1.1-1.3-2.3-1.8-3.5l-1.8-5.2
	c-0.2-0.6-0.5-1.1-0.6-1.6C484.3,198.6,483.5,194.9,483.3,191.2L483.3,191.2z"/>
</svg>
