<?xml version="1.0" encoding="utf-8"?>
<!-- Generator: Adobe Illustrator 21.1.0, SVG Export Plug-In . SVG Version: 6.00 Build 0)  -->
<svg version="1.1" id="Layer_1" xmlns="http://www.w3.org/2000/svg" xmlns:xlink="http://www.w3.org/1999/xlink" x="0px" y="0px"
	 width="425px" height="252px" viewBox="0 0 425 252" style="enable-background:new 0 0 425 252;" xml:space="preserve">
<path d="M228.7,14.5c-7.9,2.7-11.6,3.4-18.5,3.6c-13.3,0.3-20.6,2.3-27.8,7.7c-3.3,2.6-7.3,6.3-9,8.3c-2.9,3.7-12.3,10.4-17.9,12.8
	c-1.6,0.7-5.7,3-9,5.2c-5.1,3.3-6.8,5.2-11,12.4c-2.8,4.7-7.4,12.4-10.4,17.1c-4.6,7.2-5.3,9.2-5.4,13.6c-0.1,5.3,0.8,6.6,7.3,10.9
	l2.5,1.7l-2.5,2.1c-5.4,4.5-11.2,6.6-18.5,6.6c-9.2,0-13-2.3-26.1-15.7C70.6,88.5,64.7,85,56.1,85c-9.2,0-21.8,1.8-25.3,3.6
	c-6.2,3.1-7.8,5.3-7.8,10.5c0,2.6,0.5,5.1,1,5.4c0.6,0.4,1.6,2.1,2.4,3.9c1.1,2.6,2.5,3.7,6.7,5.4c8.2,3.2,12.8,4.2,19.7,4.2h6.4
	l5.1,5.4c9.4,9.7,25.3,18.4,36.9,20.1c4.2,0.6,4.8,1,5.4,3.9c0.4,1.7,1.6,5,2.7,7.3c2,4,2,4.4,0.4,8c-2.5,5.5-4.7,16.8-4.7,24.3
	c0,8.9-1.9,15.6-6,21.2c-8.6,11.8-10,13.9-10,15.3c0,0.8-0.4,1.5-1,1.5c-2.2,0-3,3.7-1.4,6.8c1.2,2.5,2.3,3.2,5.7,3.6
	c2.3,0.4,4.9,0.5,5.7,0.4c0.8-0.2,4.7,0.1,8.7,0.5c9,1,14.2-0.3,19.3-4.9c4.3-3.9,9-14.2,9.1-20.2c0-2,1-6.4,2.3-9.7l2.3-6l2.9,5.2
	c1.6,2.9,3.7,5.6,4.7,5.9c2.2,0.7,4.6-2.1,4.7-5.2c0-1.1,1.4-3.1,3.1-4.3c6.6-4.9,9.6-16.7,6.4-25.4c-1.3-3.8-1.3-3.9,0.8-3.3
	c1.2,0.2,8.6,1,16.3,1.6c16.2,1.3,83.4,0.7,95.4-0.9c19.7-2.6,29.6-4.2,36-5.7c4.6-1.2,7.4-1.4,8-0.8c1.5,1.5,4.5,10.6,6.8,20.2
	l1.9,8.3l-3.6,2.5c-2,1.3-5.3,3.5-7.3,4.9c-2.1,1.4-3.8,3.1-3.8,3.9c0,0.7-0.3,2.8-0.6,4.5c-0.5,2.6-0.3,3.1,1.2,3.1
	c1.1,0,4.2,1.1,6.9,2.5c7.8,3.8,20.9,3,30-1.7c2.9-1.6,3-1.5,4.7,1.3c2.2,3.7,2.3,7.2,0.2,9c-4.2,3.5-6.5,14.9-3,14.9
	c10.1-0.2,24.9-2.2,28.7-3.8c11.6-5,15.8-13.3,12.4-24.8c-1.5-5.1-2.7-6.9-8.9-12.9c-4-3.9-8.8-9.3-10.6-12
	c-3.9-5.7-11.6-13.5-13.3-13.5s-9.7-7.9-10.6-10.4c-0.5-1.2-1.1-3.9-1.5-6.1l-0.8-4l2.6,2.4l2.6,2.4v-5c0-5.2-2.6-14.2-5.7-19.4
	c-1.6-2.6-1.6-3.1-0.3-3.9c1.1-0.7,1.8-0.5,2.5,0.6c0.6,0.9,1.7,2.6,2.7,3.8l1.6,2.1l3.9-3.1c4.2-3.4,5.1-7.2,2.7-11.1
	c-0.8-1.2-1.4-3.3-1.4-4.5c0-1.3-1-4.3-2.1-6.8c-1.2-2.5-2.9-7.2-3.9-10.5c-4.2-14.1-7.8-19.7-25.4-38.8
	c-10.4-11.3-20.3-19-30.6-23.7c-1.4-0.7-7.4-2.5-13.4-4c-9.5-2.4-11.9-3.5-18.5-8.2C248.7,9.7,244.7,9,228.7,14.5z"/>
</svg>
