<?xml version="1.0" encoding="utf-8"?>
<!-- Generator: Adobe Illustrator 18.0.0, SVG Export Plug-In . SVG Version: 6.00 Build 0)  -->
<!DOCTYPE svg PUBLIC "-//W3C//DTD SVG 1.1//EN" "http://www.w3.org/Graphics/SVG/1.1/DTD/svg11.dtd">
<svg version="1.1" id="Слой_1" xmlns="http://www.w3.org/2000/svg" xmlns:xlink="http://www.w3.org/1999/xlink" x="0px" y="0px"
	 viewBox="-206 12 1024 768" enable-background="new -206 12 1024 768" xml:space="preserve">
<path fill="#000000"      d="
	M786.5,644.1c-20.4-8.7-22.9-53.8-22.9-53.8c-1.2-21.7-5.6-44-5.6-44c-10.5-63.8-40-129.4-40-129.4c-7.8-20.4-0.3-80.5-0.3-80.5
	c5.6-76.1-72.5-198.1-72.5-198.1c-17.9-31.5-73.6-61.3-73.6-61.3L461.5,32.3C362.3-9.8,267,50.9,267,50.9
	c-33.3,22.3-84.8,17.3-84.8,17.3c-25.4-10-59.7,0.7-59.7,0.7s-40.4,6.5-59.6,4.6c0,0-130.1-28.1-152.4,18.4c0,0-8.1,15.4-7.5,18.5
	c0,0-19.2,6.2-21.7,45.8c0,0,4.3,11.1-27.7,26.6c0,0-25,14.2-19.4,62.5c0,0,1.9,37.1-8.1,56.3c0,0-13,36.1-5.6,45.9
	c0,0-7.7,2.4-3.5,23.5c0,0-4.7,12.3-1.2,16.7c0,0-2.3,13-1.3,16.7c0,0-0.8,15.5,3.5,21.7c0,0-1.9,63.2,5.6,95.3
	c0,0,10,94.7,1.2,110.9c0,0-27.9,65.7-7.5,95.3c0,0,14.8,37.8,14.8,23.5c0,0,0-12.3,9.3-6.2c0,0,18.6-9.3,0.6-22.3
	c0,0-10-10-3.1-27.9c0,0,23.1-43.1,29.1-68.8c0,0,7.5-63.3,7.5-109c0,0,0.6-40.2,8.7-57.6c0,0,13.7-54.5,11.2-67.5l11,8.7
	c0,0,11.1-8.1,18.6-32.2c0,0,12.3,1.9,17.9-1.9c0,0,12.9-6.2,22.9,0c0,0,29.2-4.6,32.2-18.9l15.2,0.8c0,0-1.1,12.7,13.1,17.1
	c0,0,8.7-11.2,14.8-11.2c0,0,18.6,36.4-6.2,73.6c0,0-22.9,50.8-13,90.4c0,0,4.4,62.5-1.2,81.7c0,0-12.3,51.4-3.7,66.3
	c0,0,0.6,40.2-8.1,47.1c0,0-9.3,12.6-26,23.2c0,0-12.3,8.7-8.7,15.7c0,0,40.2,15.4,109.6,0c0,0-1.8-8.7-5.6-11.7
	c0,0-9.3-17.3-4.4-30.4c0,0,33.4-108.4,34-118.2c0,0,37.8-120.7,47.7-123.2c0,0,3.7,62.5,16.1,105.9c0,0,13,54.5,16.1,68.8
	c0,0,6.8,42.1,26.7,56.9c0,0,21.1,24.3,16.7,32.3c0,0-11.7,17.2-12.3,22c0,0,35.8,9.8,91.3,0c0,0-3.4-17.1-11.4-22.7
	c0,0-7.5-6.2-10.5-11.7l-16.1-34.6c0,0-6.8-38.4-5.6-69.4c0,0,0-50.2,0-61.3c0,0,4.3-39.6,12.3-48.3c0,0,16.1-19.2,6.8-34
	c0,0,80.5,22.3,159.7,10c0,0-10,16.1,19.2,59.4c0,0,27.3,49,17.3,117.6c0,0-7.5,44.6-3.1,61.9c0,0-2.5,14.2-16.1,26
	c0,0-12.3,8.7-9.3,13c0,0,13,11.1,91.7,5.6l1.2,6.3c95.3,12.3,114-4.7,114-4.7c-9.3-17.6-17.3-39.9-17.3-39.9c2.8-20-5-42.1-5-42.1
	l-16.1-72.5c-5-16.1-3.1-36.5-3.1-36.5c6.8-22.9,25.4-134.4,25.4-134.4c3.1-3.1,17.9-37.1,17.9-37.1c11.1-11.7,27.3-50.8,27.3-50.8
	c2.5,64.4,29.1,111.5,29.1,111.5c25.4,38.4,34.6,125.7,34.6,125.7c1.2,19.8,15.5,59.4,15.5,59.4c8.1,21.1,24.8,21.7,24.8,21.7
	s0,0,4.4,4.4c4.4,4.4,6.8,14.2,6.8,14.2C815.7,661.5,786.5,644.1,786.5,644.1z M563,708.5c0,19.2-4.4,20.4-4.4,20.4
	c0-21.7-7.5-63.8-7.5-63.8c-3.7-22.9-5.6-74.3-5.6-74.3c9.3,6.2,17.3,72.5,17.3,72.5C558.7,682.5,563,708.5,563,708.5z"/>
</svg>
