<?xml version="1.0" encoding="utf-8"?>
<!-- Generator: Adobe Illustrator 18.1.1, SVG Export Plug-In . SVG Version: 6.00 Build 0)  -->
<svg version="1.1" id="Слой_1" xmlns="http://www.w3.org/2000/svg" xmlns:xlink="http://www.w3.org/1999/xlink" x="0px" y="0px"
	 viewBox="0 0 1024 658.595" enable-background="new 0 0 1024 658.595" xml:space="preserve">
<path fill="#000000"      d="
	M871.232,215.47c0,0,35.857,6.658,74.087-3.497c0,0,51.977-5.93,68.105-32.81c0,0,3.588-8.341-10.748-4.16
	c0,0-5.971-3.276,5.378-6.86c0,0,10.157-4.834,8.365-12.834H1011l1.834-3.928c0,0-14.933,5.848-11.947-0.125
	c0,0,9.557-4.841,12.544-12.607c0,0,1.792-6.005-10.752-7.797c0,0,8.96-6.586,6.571-13.157c0,0-10.752-4.786-23.296-2.397
	c0,0,17.92-11.951,16.128-20.911c0,0-2.389-1.794-10.155,4.179c0,0-4.181-2.364,1.792-8.935c0,0,3.584-6.324,2.389-11.324H992
	l1.122-2.789c0,0-7.168-1.32-14.933,5.251c0,0,3.584-10.217,10.155-12.607c0,0-1.195-4.615-8.96-1.031c0,0,0-4.989,3.584-9.17
	c0,0-6.571-0.008-3.584-5.981c0,0-11.947-0.004-20.907,8.359c0,0,7.765-11.949,14.336-17.325c0,0-8.363,1.791-4.779-4.78
	c0,0-8.363,2.389-21.504,11.349c0,0,6.571-10.752,15.531-16.726c0,0-2.76-7.168-18.105,5.973c0,0,3.769-10.752,9.743-17.323
	c0,0-7.765-1.195-19.115,13.739c0,0,1.792-7.811,7.168-13.761c0,0-5.376,1.217-11.947,8.983c0,0,8.363-11.349,6.571-18.517
	c0,0-7.473,0.415-12.035,5.745c-0.91,1.063-1.705,2.322-2.301,3.812c0,0-6.571-7.765-32.853,11.947c0,0-28.075,13.739-31.659,21.504
	c0,0-14.933,4.181-33.451,35.243c0,0-11.947,33.451-76.459,45.995c0,0,19.712-21.329,34.048-21.417c0,0-2.389-8.45,7.168-15.618
	c0,0,9.557-9.557-8.363-16.128c0,0-1.792-16.128-43.008-16.128c0,0-37.035-8.363-59.734,8.96c0,0-14.336,1.195-23.893,8.363
	c0,0-9.557-1.792-22.699,8.363c0,0-20.907,16.725-27.477,25.685c0,0-12.544,4.779,0-11.349c0,0,10.752-14.933,27.477-23.296
	c0,0-24.192,5.973-45.099,27.477c0,0-10.038,4.181-14.038,9.557v-8.358c0,0-6.223,8.358-16.378,13.137
	c0,0-15.406,4.181-18.392,10.155c0,0-13.001-6.571-33.648,7.765c0,0-7.411-0.597,8.387-14.933c0,0,17.605-14.933,17.605-23.893
	c0,0-11.939,13.739-22.691,19.115c0,0-16.721,7.168-24.487,15.531c0,0,16.193-31.659,29.602-44.203c0,0-21.833,13.739-35.572,32.256
	c0,0,0-11.947,11.35-22.101c0,0-29.867,14.336-47.787,42.411c0,0,0-13.739,14.934-25.088l-10.155,4.181
	c0,0,25.088-23.296,26.283-32.256c0,0-16.725,20.309-37.632,31.061c0,0,17.92-20.907,16.725-27.477c0,0-5.973,12.544-34.048,32.853
	c0,0,6.571-8.784,7.765-16.04c0,0-12.544,15.443-35.243,30.376l8.96-13.141c0,0-19.712,11.947-37.035,29.867
	c0,0,19.115-36.261,35.84-47.101c0,0-31.659,19.027-50.176,44.712c0,0-10.752-4.181-2.389-22.699c0,0-19.712,5.376-32.853,40.619
	c0,0-12.544,1.792-7.168-18.517c0,0-9.557,4.181-4.181-13.739c0,0-20.907,18.517-22.101,61.526c0,0-7.168,15.531-23.893-20.309
	c0,0-3.584,18.517,11.947,44.8c0,0-5.376,11.947-10.155,0c0,0-0.272,9.813-7.168,15.531c0,0-16.128,15.531-21.504,22.699
	c0,0-53.76,41.814-54.358,59.136c0,0-2.389,8.96-28.075,29.867c0,0-55.552,56.15-63.915,83.03c0,0-25.685,29.867-27.477,45.398
	l-18.517,27.477c0,0-12.947,11.739-18.92,26.672c0,0-18.712,9.168-4.22,19.725c0,0,1.038,12.739,14.18,16.92
	c0,0,11.349-0.597,17.323,0c0,0,25.685,6.571,47.787,4.779c0,0,36.437,3.584,45.995,13.141c0,0-32.853-4.973-46.592-2.584
	c0,0-29.269-4.584-57.344,4.973c0,0-7.765,1.792-15.531,0c0,0-13.141-1.792-7.765,8.363c0,0,8.363,13.739,14.933,13.739
	c0,0,9.557,11.349,22.101,8.363c0,0,8.96,7.765,34.048,9.557c0,0,22.699,11.947,57.344,10.752l30.464,0.084
	c0,0,12.725,5.057,51.552-1c0,0,94.198,0.319,146.166-25.367c0,0,51.371-10.752,67.499-28.672c0,0,9.557,0.597,23.296,16.128
	c0,0,33.451,35.243,61.526,22.699c0,0,16.128,1.792,20.907-7.168l1.792-5.376l-2.987-4.779c0,0,8.96-5.376,13.739-19.712
	c0,0-21.504-5.973-16.725-17.92l-15.531-5.973c0,0,0.597-1.792,1.792-5.973c0,0,62.123-26.283,103.339-62.72
	c0,0,70.486-54.544,81.238-118.963c0,0,1.792-12.451,7.765-13.646c0,0,35.84-4.779,44.203-9.557c0,0,34.646-5.973,38.229-11.947
	c0,0,37.035-10.482,38.827-17.486c0,0,28.075-19.549,26.283-33.287c0,0-2.389-11.947-18.517-11.947c0,0-7.168-9.557-15.531-6.571
	c0,0-17.323-2.389-34.048,4.779c0,0-7.168-5.376-11.947-5.376s-4.779-4.181,11.349-10.155c0,0,19.712-7.168,22.101-14.336
	c0,0-2.987-4.181-11.947-2.389c0,0,18.517-25.685,47.19-34.048L871.232,215.47z"/>
</svg>
