<?xml version="1.0" encoding="utf-8"?>
<!-- Generator: Adobe Illustrator 21.1.0, SVG Export Plug-In . SVG Version: 6.00 Build 0)  -->
<svg version="1.1" id="Layer_1" xmlns="http://www.w3.org/2000/svg" xmlns:xlink="http://www.w3.org/1999/xlink" x="0px" y="0px"
	 width="69.7px" height="56px" viewBox="0 0 69.7 56" style="enable-background:new 0 0 69.7 56;" xml:space="preserve">
<g id="Layer_1_1_">
</g>
<g id="Bear_Black_Shape">
</g>
<g id="Camel_Silhouette">
</g>
<g id="Dog_And_Cat_Friends_Walking_Side_By_Side">
</g>
<g id="Halloween_Black_Cat">
</g>
<g id="Black_Cat_Shape">
</g>
<g id="Cheetah_Feline_Silhouette">
</g>
<g id="Chicken">
</g>
<g id="Baby_Chicken_And_Half_Egg_Shell">
</g>
<g id="Deer_Silhouette">
</g>
<g id="Deer_Silhouette_1_">
</g>
<g id="Dog_Side_Silhouette_With_Curled_Tail">
</g>
<g id="Dog_Shape">
</g>
<g id="Fox_Shape">
</g>
<g id="Horse_Standing_On_Three_Paws_Black_Shape_Of_Side_View">
	<g id="Sut7Eu_1_">
		<g>
			<g>
				<path d="M16.2,51.8c-0.9,0-1.8,0-2.7,0c-0.1-0.1-0.1-0.2-0.2-0.3c-0.4-0.3-0.5-0.6-0.4-1.1c0-0.2,0.1-0.3,0.1-0.5
					c0.2-0.6,0.1-0.8-0.4-1.2c-0.5-0.3-0.7-0.7-0.6-1.3c0-0.2,0-0.4,0.1-0.6c0.2-0.7,0.4-1.3,0.6-2c0.4-1.7,0.6-3.4,0.6-5.2
					c0-0.6,0-1.2,0-1.8c0-0.4,0.1-0.6,0.4-0.8s0.6-0.4,0.8-0.6c1-1.2,1.4-2.6,1.6-4.2c0.1-1.4-0.1-2.8-0.5-4.1
					c-0.6-1.8-1.2-3.6-1.4-5.5c-0.1-1.1,0-2.1,0.6-3c0.1-0.1,0.1-0.2,0.2-0.3c0.3-0.8,0.1-1.3-0.6-1.5c-0.5-0.1-1-0.1-1.4,0
					c-1.2,0.3-2.1,1.6-2.2,2.9c0,0.9,0.2,1.8,0.7,2.6c0.4,0.6,0.9,1.2,1.3,1.8c0.5,0.9,1,1.8,1,2.9c0,0.8-0.1,1.6-0.5,2.3
					c1.3,2.2,0.9,5.6-0.1,6.4c0-0.6,0-1.1,0-1.6c0,0.9-0.3,1.7-0.7,2.4c-0.3,0.6-0.7,1.1-1,1.7c-0.3,0.5-1.1-3.4-0.8-4.7
					c0.3-1.1,0-2-0.4-2.9c0,0.5,0.3,1,0.2,1.6c-0.1-0.1-0.2-0.2-0.2-0.2c-0.1-0.6-0.5-1.1-0.9-1.6c-0.5-0.6-1-1.1-1.5-1.7
					c-0.6-0.8-1.2-1.6-1.5-2.6c-0.2-0.7-0.5-1.3-0.9-2c-0.3-0.5-0.4-1.1-0.7-1.6c0-0.9,0-1.8,0-2.7c0-0.1,0.1-0.1,0.1-0.2
					c0.3-1.6,1-2.9,2.2-4c1.3-1.1,2.7-1.6,4.3-1.4c1,0.1,1.9,0.4,2.8,0.8c0.9,0.4,1.8,0.5,2.7,0c1.2-0.6,2.3-1.2,3.6-1.6
					c1.1-0.4,2.3-0.5,3.5-0.3s2.4,0.4,3.6,0.7c1.6,0.4,3.2,0.7,4.8,0.6c0.1,0,0.1,0,0.2,0c1.4,0,2.7-0.1,3.9-0.8
					c0.9-0.4,1.7-0.9,2.4-1.6c0.9-0.8,1.7-1.5,2.6-2.3c0.4-0.4,0.8-0.7,1.1-1.1c0.5-0.7,1-1.3,1.8-1.7c0.4-0.2,0.7-0.5,0.8-0.9
					c0.2-0.6,0.7-1,1.2-1.2s0.9-0.4,1.2-0.8c0.5-0.5,1.1-0.8,1.8-0.8c0.3,0,0.6-0.1,0.7-0.4c1.3,0,2.6,0,3.9,0l0.1,0.1
					c0.4,0.1,0.8,0,1.2,0.3c0,0,0.1,0,0.2,0c0.3-0.1,0.6,0,0.8,0.1c0.4,0.2,0.7,0.4,1.2,0.4c0.1,0,0.3,0.1,0.4,0.2
					c0.2,0.1,0.5,0.2,0.7,0.4c0.2,0.1,0.5,0.2,0.7,0.4c0.7,0.7,1.5,1.3,2,2.2c0.1,0.2,0.3,0.3,0.5,0.5C62.2,8.7,62.6,9,63,9.3
					c0.2,0.2,0.4,0.3,0.7,0.3c0.4,0,0.8,0,1.1,0c0,0.1,0,0.2,0,0.3c-0.2,0.1-0.4,0.3-0.6,0.4c0.2,0.1,0.3,0.2,0.5,0.3
					c-0.3,0.2-0.6,0.3-0.9,0.5c-0.3,0.2-0.7,0.2-1,0.1c0,0.5-0.2,0.7-0.6,0.9c-0.1,0.1-0.2,0.2-0.2,0.2c-0.3,0.1-0.4,0.3-0.3,0.5
					c0.2,0.6,0,1-0.4,1.3c-0.6,0.4-0.8,1-1.1,1.7c-0.4,1.2-0.9,2.3-1.4,3.5c-0.1,0.2-0.1,0.4-0.2,0.6c-0.1,0.4-0.2,0.5-0.6,0.6
					c-0.2,0-0.4,0.1-0.6,0.2c-0.9,0.5-1.9-0.1-2-1.1c0-0.2-0.1-0.4-0.2-0.5c-0.4-0.5-0.4-0.6,0-1.1c0.3-0.4,0.4-0.9,0.4-1.4
					c-0.1-0.8-0.3-1.7-0.6-2.5c-0.3-0.8-0.4-1.5,0.1-2.3c0.1-0.1,0.1-0.2,0.1-0.3c-0.1-0.1-0.1-0.1-0.1-0.1
					c-0.9-0.2-1.8,0.4-1.8,1.4c0,0.8,0,1.7,0,2.5c0.1,1.6-0.2,3.2-0.8,4.7c-0.4,1-0.4,1.9,0.2,2.8c0.3,0.5,0.4,1.2,0.3,1.8
					c-0.2,0.7,0,1.3,0.1,1.9c0,0.3,0.2,0.4,0.5,0.4c0.7,0,1.4,0.3,2,0.6c0.9,0.5,1.9,0.9,3,0.9c0.5,0,0.8,0.4,0.8,0.9
					c0,0.4,0.1,0.9,0.1,1.3c0.1,0.7,0,1.3-0.5,1.9c-0.9,1.1-1.7,2.3-2.3,3.6C56.4,36.7,56,37,55.3,37c-0.5,0-1,0-1.4,0.4
					c-0.7,0.6-1.5,0.7-2.3,0.8c-0.3,0.1-0.6-0.1-0.6-0.4c-0.1-0.7,0.3-1.3,0.6-1.8c0.3-0.4,0.7-0.4,1.1-0.4s0.7,0,1,0.3
					c0.1,0.1,0.4,0.1,0.6,0.1c0-0.2,0.1-0.3,0.1-0.4c0.1-0.5,0.3-0.8,0.9-0.9c0.2,0,0.5-0.2,0.6-0.4c0.5-0.5,0.9-1.1,1.2-1.8
					c0.1-0.3,0.1-0.6,0-1C57,31.3,57,31,56.9,30.7c0-0.4-0.2-0.5-0.6-0.5c-0.3,0-0.5,0.1-0.8,0.2c-0.8,0.1-1.6,0.3-2.4,0.3
					c-0.7,0-1.4-0.1-2-0.5c-0.4-0.3-0.9-0.4-1.5-0.3C49.3,30,49,30,48.7,30c-0.3,0-0.5,0.1-0.6,0.4c-0.5,1-0.9,2-1.1,3
					c-0.1,0.4-0.2,0.8-0.4,1.2c-0.2,0.5-0.4,1-0.6,1.5c-0.2,0.9-0.3,1.8-0.3,2.7c0,0.3,0,0.7-0.1,1c-0.4,1.2-0.5,2.5-0.7,3.7
					c0,0.4-0.1,0.8-0.1,1.1c0,0.5,0.2,1,0.3,1.5c0.1,0.3,0.2,0.7,0.2,1c0,0.4,0.2,0.7,0.5,0.9c0.3,0.1,0.5,0.3,0.8,0.4
					c0.9,0.3,1.2,1.1,1.5,1.9c-0.2,0.1-0.2,0.2-0.3,0.2c-0.9,0.2-1.7,0.2-2.6,0c-0.4-0.1-0.6-0.4-0.6-0.8c0-0.2,0-0.5,0-0.7
					c0-0.6-0.2-1-0.8-1.2c-0.1-0.1-0.3-0.1-0.4-0.2c-0.4-0.1-0.6-0.4-0.6-0.8c0-0.5,0-1,0-1.4c0.1-1.1,0.2-2.1,0.2-3.2
					c0-0.6-0.1-1.3-0.2-1.9c0-0.5-0.1-1,0-1.5c0-0.7,0.2-1.3,0.2-2c0-1.5,0-2.9-0.1-4.3c0-0.6-0.2-1.2-0.4-1.8
					c-0.2-0.5-0.6-0.9-1.2-1c-0.3,0-0.7,0-1.1,0c-1,0.1-1.9,0.3-2.9,0.3c-1.1,0-2.3,0.1-3.5-0.1c-1.1-0.2-2.1-0.4-3.1-0.9
					c-0.3-0.1-0.7-0.2-1.1-0.4c-0.1,0.5-0.1,0.8-0.4,1.1c0,0,0,0.1,0,0.2c0,0.4-0.1,0.8-0.1,1.1c-0.1,0.7-0.2,1.4-0.2,2.1
					c-0.1,1-0.5,2-0.6,3.1c-0.1,1.2-0.1,2.4,0.1,3.6c0.4,2,1.1,3.9,2.2,5.6c0.6,0.9,1.3,1.7,2.3,2.1c0.3,0.1,0.6,0.3,0.8,0.4
					c0.6,0.3,1.2,1.2,1.3,2.1c-0.4,0.1-0.8,0.2-1.2,0.2c-0.6,0-1.1-0.1-1.7-0.1c-0.5-0.1-0.8-0.6-0.7-1c0.1-0.5,0-0.8-0.3-1.1
					c-0.3-0.3-0.6-0.5-1.1-0.5c-0.6,0-1-0.3-1.3-0.8c-0.1-0.2-0.1-0.3-0.2-0.5c-0.7-2-1.5-4-2.5-5.9c-0.3-0.5-0.5-1.1-0.9-1.5
					c-0.6-0.6-0.5-1.3-0.3-2c0.5-1.5,0.5-3.1,0.2-4.7c-0.2-1.1-0.9-1.9-1.7-2.6c-0.1,0.1-0.2,0.1-0.2,0.1c-0.5,0.4-1,0.9-1.6,1.3
					c-0.7,0.5-1.2,1.2-1.6,2c-0.7,1.3-1.6,2.4-2.5,3.4c-0.2,0.3-0.5,0.5-0.7,0.8c-0.8,1-1.3,2-1.7,3.2c-0.4,1.4-0.7,2.8-1,4.3
					c-0.1,0.5,0,1.1,0.2,1.6c0.2,0.4,0.3,0.9,0.2,1.4c-0.1,0.4,0,0.9,0.4,1.1c0.7,0.4,1,1.2,1.3,1.8C16.3,51.4,16.3,51.6,16.2,51.8z
					"/>
			</g>
		</g>
	</g>
</g>
<g id="Rat_Silhouette">
</g>
<g id="Owl_Bird_Shape">
</g>
<g id="Coliss_Logo">
</g>
<g id="Skunk_Silhouette">
</g>
<g id="Wallaby_Mammal_Animal_Silhouette">
</g>
</svg>
