<?xml version="1.0" encoding="utf-8"?>
<!-- Generator: Adobe Illustrator 18.0.0, SVG Export Plug-In . SVG Version: 6.00 Build 0)  -->
<!DOCTYPE svg PUBLIC "-//W3C//DTD SVG 1.1//EN" "http://www.w3.org/Graphics/SVG/1.1/DTD/svg11.dtd">
<svg version="1.1" id="Слой_2" xmlns="http://www.w3.org/2000/svg" xmlns:xlink="http://www.w3.org/1999/xlink" x="0px" y="0px"
	 viewBox="262 116 1067 1189.4" enable-background="new 262 116 1067 1189.4" xml:space="preserve">
<path fill="#000000"    d="M1321.1,333.6c-1.4-2.1-7.3-9.3-7.3-9.3s0,0,0.3-4.2
	c0.4-5.4-0.4-11.7-4-15.9c-3.9-4.5-5.2-7.3-5.2-7.3s9.2-11.2,5.6-18.2c-2-3.7-3.8-12.3-9.2-11.4c0.1-2.5,2.9-3.7,3.7-7.8
	c-4.2,0.3-11.6-8.6-15.8-11.2c-7.6-4.9-16.8-2.3-24.5-0.6c4.3-8.1,10.1-20.6,10.6-29.6c0.4-8.6-6.7-19.3-15-22.4
	c-4.9-1.8-10,0.3-14.5-3c-1.8-1.3-2.1-3.3-3.9-4.5c-2.1-1.5-5.8-1.3-8.5-1.3c-6.1-0.1-7.7-3-12.8-4.8c-5.2-1.8-10.2-0.1-15.3-0.8
	c-4.7-7.1,8.8-20.6,11.5-24.3c1.3-1.8,4.8-10.5,5.3-11.4c1.5-2.9,7.5-4.9,10-6.8c3.3-2.4,12.4-8.1,8.5-13.1
	c-2.5-3.3-12.3,0.1-15.5,1.5c-10.4,4.4-19.8,13.8-29.1,20.5c-19.2,13.9-37.9,31.3-53.6,48.9c-7.8,8.7-17.2,16.9-26.5,24
	c-5.6,4.3-108.5,89.7-117,92.3c-9.7,2.9-21.7,2-30.1,9.1c-3.3,2.9-2.8,4-7.1,5.1c-2.9,0.8-49.5,12.3-60.8,17.1
	c-10.9,4.5-21.2,11.2-32.2,16.4c-11,5.1-24.3,5.6-36.6,5.6c-12.9,0-25.8-0.1-38.1,2.1c-11.2,2-22,9-32.8,12.3
	c-23.7,7.1-49.1,8.6-73.3,16.4c-6.8,2.1-13.1,4.3-19.8,5.9c-3.4,0.9-6.9,1.3-10.5,2.1c-4.2,1-4.4,1.9-7.6-0.8
	c-8.1-6.8-14.4-18.9-21.5-26.5c-44.7-46.9-88.8-73.8-118.4-82.2c-22-6.3-62-9.9-68.8-8.6c7.2-7.3,13-17.6,20.8-20.7
	c0.9-2,3.5-2.5,4.5-4.5c0.9-1.8,0.1-5.6,0.1-7.5c0-4.8,1.1-9.9-2.4-12.8c-1.5-1.3-3.9-1.6-5.7-3.4c-1.5-1.5-1.9-4.2-4.8-3.5
	c-4.7,1-2.3,10-9.7,8.1c-0.6-2.4,2.3-6.3-0.3-8.1c-2.3-1.6-4.8,1.1-6.2,2.7c-3,3.4-4.8,8.3-6.8,12.3c-2.5,4.8-4.8,9.1-10.5,7.8
	c-7.1-1.6,0-6.9-3.3-12.9c-3.9,2.7-4.4-11.7-5.3-14.5c-3,0.1-6.1,9.3-7.3,12.1c-2,4.5,0.5,9.3-1.8,13.5c-8.8,2.4-4.9-7.1-6.7-11.4
	c-3-7.5-6.9,2.1-7.7,5.4c-0.5,2.8-0.6,5.2-2.5,7.6c-2,2.7-4,2.1-4.4,6.2c-0.3,3.2,1.3,11.9-5.2,9c-4.2-1.9-3.9-8.8-6.4-11.9
	c-5.3-6.3-5.7,3.8-6.7,7.5c-1.4,5.6-4.5,6.9-8.3,10.9c-3.8,3.9-3.8,9.7-5.9,14.5c-1.8,3.8-4.7,9.9-9.3,9.7c-4.8-0.1-8.8-6.3-12,0.9
	c-1.3,2.8,1.1,7.1-0.4,9.7c-2.4,4.5-4,0.3-6.7,0.6c-3.9,0.6-7.3,6.7-10.1,9.7c-3.4,3.7-7.8,6.8-10.4,11c-2.8,4.8-3.7,11.9-4.5,17.4
	c-2,12.1,0.8,21,6.4,31.5c-11.5,6.6-21.3,14.8-28.5,26.7c-3.2,5.3-7.1,12.4-5.7,18.3c2,8.6,2,8.6,11.7,0c12.8-1.3,16.3-2.1,25.1-4.5
	c8.7-2.3,17.1-6.8,26.5-3.2c0,0-2.4,8-2.1,9.7c0.3,1.9,1.4,3.7,1.4,6.3c0,5.1,0.8,9.5,2.1,13.9c2.5,8.2,6.9,16.3,12.5,23.2
	c4.9,6.1,12.4,15.5,20.5,16.2c5.4,0.4,8.7-3.9,13.8-4.5c4.7-0.6,6.7,4.4,12.1,4.8c0.1,5.9-2.5,10.7-3.7,15.2
	c-1.5,5.6-2.8,11.2-3.8,16.8c-2.1,12-3.5,24.9-4.8,37.4c-2.7,25.8,5.6,89.9,13.1,116c1.6,5.7,10.6,85.1,85.6,148.5
	c21.9,18.6,75.3,41.1,82.1,42.9c3.4,0.9,30.9,18.2,36,21c-1.5-3.9-3.8-7.5-3.9-11.6c2.3,7.3,11,14.5,16.2,20.1
	c5.2,5.4,11.5,8.8,16.7,13.6c-0.5-3.8-6.8-9.7-9.3-12.8c-5.1-5.9-8.7-10.4-12.1-17.3c4.7,4.9,9.2,10.2,14,14.9
	c4.7,4.7,11.2,6.4,16.3,10.6c-5.3-10-17.4-15.5-21.7-26.5c3.8,2.4,7.5,7.1,10.7,10.4c4.8,4.8,8.1,10.5,12.8,15.4
	c3.9,4.2,7.3,7.3,12.1,10.1c5.7,3.2,12,3.2,18.1,5.2c-5.2-4.7-13.5-6.8-17.7-12.8c1.9,2.8,9.1,4.4,12.4,4.3
	c-5.4-5.4-11-8.8-14.3-15.8c7.6,5.2,14.4,11.2,21.6,16.3s16.3,13.3,25.1,14.4c-4.9-5.2-10.2-8.8-14.5-14.9
	c-3.5-5.1-8.3-10.6-10-16.5c4.2,6.4,11.9,14.1,16.9,19.3c5.9,6.1,12.4,8.2,19.5,11.7c-1-1.1-1.3-2.5-1.9-3.7
	c3.7-0.3,9.2,5.4,12.1,7.6c4.5,3.4,9.5,7.3,14.7,9.5c-1.5-2.1-3-4.5-4-7.1c2.4,2.7,6.7,3.5,9.9,3.4c-0.5-0.9-0.5-2.1-1.1-2.9
	c5.7,2,10.7,4.5,15.4,8c-1.1,1.6-2.4,3.2-3.7,4.2c-3.2,2.5-5.7,5.2-9.5,6.1c3,0.8,7.7-0.5,10.2-2c0.4,4-4.4,8.1-5.1,11.9
	c0.9-0.8,2.1-1,3-1.6c-2.8,6.6-13.1,17.4-11.4,24.8c5.9-5.3,11-14.7,19.6-16.7c0.9,3.4-1.9,5.8-1.3,9c3.7-0.9,8.1-3.3,11.7-4.5
	c-2.1,2.3-3.2,5.7-5.6,7.7c3.3,0.1,7.6-2.9,10.2-4.5c-0.5,2.9-3.7,6.6-2.8,9.7c3.4,1,8.8-3.5,9.9-6.4c-1.8,5.1-4.7,10.7-8.2,14.9
	c2.4-0.1,6.1-2,8.2-3.4c0,2.5-1.8,4.4-2.3,6.4c1.8,0.5,3.7,0.3,5.2-0.5c-0.4,0.6-0.4,1.5-0.5,2c3.7,0.4,7.6,0,11.2,0.3
	c0,0.6,0.3,1.4,0.3,2c2.1,1,4.3,2.1,6.6,2.5c1.6,5.4-6.3,13.5-9.7,17.2c5.3-2.4,11-3.7,16.7-4.3c0.5,0,1.1-0.1,1.8-0.3
	c-1.8,7.7-4.5,16.8-9.3,17.8c-3.3,0.8-11.2-2.8-14.5-3.9c-4.5-1.5-7.3-4.5-11.6-6.7c-9.2-4.5-16.8-11.2-25.6-16.4
	c-4.2-2.4-9.6-4.2-12.4-7.2c-3.7-4-9.9-7.2-15-9.9c1.5,3,5.8,6.2,7.5,9.1c0.6,1,2.9,2.7,3.2,3.8c0.5,2.1-1.3,2.4-1.4,4.4
	c-0.4,7.5,5.1,10.6,10.1,15c10,8.8,18.2,23.4,31.6,26.9c-2.1,1.5-9.7,2.7-12.6,3.2c-4.8,0.8-9.1,1.3-13.8,2.4
	c-9.3,2.4-19.7,1.4-29.2,2.9c-4.5,0.8-9.1,1.1-13.5,1.5c-5.4,0.5-9.6-1-14.5-1.5c-5.8-0.6-23.5-1-25.4,6.1
	c-6.1-3.3-24.5,7.3-24.9,14.5c8.5-3.7,17.8-7.3,27.2-6.7c0,11.5,23.9,6.6,29.8,5.9c6.3-0.6,12.9,0.3,19.1,0.8
	c6.7,0.6,13.3-1.5,19.8-1.5c5.9,0,11.9,1.5,18.3,1.5c6.3,0,12.1-1.4,18.3-2.3c5.2-0.8,11.4-1.9,15.8,1.8c4.3,3.5,6.7,8.6,3.8,13.4
	c-3.5,5.7-8.5,10.1-11.2,16.2c-2.4,5.3-7.6,13-6.7,18.9c0.4,0.1,2.1,3.3,2.7,3.4c-0.5,5.6-3.3,8.6-2.8,15c0.4,4.3,0.5,14.1,3.7,16.7
	c2-10.2,7.1-18.3,10.2-28c5.8,3.2,10.2-4.9,11.4-9.2c1.6-6.2,3.5-9.5,6.7-15.3c1-1.9,1.6-5.6,3.4-6.7c2.4-1.6,5.3,0.1,8.1-2.7
	c3.9-3.9,4.3-11.1,6.3-15.8c4-9.3,15.4-17.1,25.1-19.7c0.8-0.3,1.6-0.4,2.5-0.5c-0.1,0.4-0.3,0.6-0.4,1
	c-4.3,10.9-6.7,21.5-11.5,32.2c-4.9,11.2-10.1,22.1-14.5,33.6c-3.9,10.4-10.9,19.2-16,28.8c-5.1,9.5-20.7,10.5-30.3,12.4
	c-3,0.6-5.9,1.3-9,1.8c-3.3,0.5-4.5-0.4-7.8-1c-5.8-1-11.5-0.3-17.6-0.8c-5.6-0.5-11.5-1.1-16.5-3.3c-2.3-1-4.4-2.8-7.1-2.9
	c-3-0.1-4.9,1.5-7.6,1.5s-4.7-1.4-7.7-1.5c-3.3-0.1-6.1,0.3-9.1,0.8c-3.7,0.6-13.9,2.7-14.1,7.1c3.4,1.4,8.1,0.3,11.9,0.5
	s7.1,1.8,10.5,3.2c-0.3,1,0.5,2.5,0.3,3.5c5.1,2.5,9.9,2.5,15.2,3.9c5.7,1.5,10.4,4,16,4.7c6.4,0.6,12,2,18.3,3
	c3.9,0.6,14,0.9,16.8,4.4c2.7,3.5-5.4,5.2-9,7.2c-4.9,2.8-10.4,5.8-15.5,8.8c-5.6,3-11,3-16.4,5.7c-4.7,2.4-9.5,4.9-14.1,7.2
	c-6.8,3.3-13.6,7.3-20.6,9.1c-3.9,1-8.3,0.4-12,1.6c-1.8,0.6-3.4,1.5-4.8,2.9c-1.3,1.4-1,3.4-2.3,4.7c-2.1,2-7.1,2.8-9.7,4.2
	c-3.5,1.8-6.3,3.8-9,6.8c-5.4,6.1-7.5,12-10.2,19.3c3.7-3.8,7.1-6.8,11.7-8.7c4.4-1.8,17.4-7.5,17.4-7.5s3.3,6.1,6.1,6.6
	c3.3,0.6,5.8-0.6,8.6-1.4c5.2-1.4,9.6-3.4,14.1-6.4c9.6-6.4,18.9-9.5,29.9-12.1c6.2-1.5,11.6-4.5,17.6-7.3
	c5.7-2.7,11.4-3.7,17.7-4.5c10.1-1.5,19.2-6.8,29.6-4.7c9.9,1.9,13.5,8.5,18.2,16.9c4.5,8.6,6.3,18.4,7.8,28
	c0.8,4.5,2.9,8.6,5.6,12.1c3.5,4.9,6.2,4.3,11.9,4.7c0,4.8,12.9,14.9,16.8,16.5c-1.3-4.9-2.5-10.5-5.1-15.2
	c-1.1-2.1-1.9-3.7-2.7-5.8c-0.9-2.7-1-5.3-1.4-8.6c-0.6-5.4-3.7-10.5-4.7-15.9c-1-6.2-1.5-12-1.5-18.3c0-6.4-2.1-11.1-3-16.8
	c-0.9-5.9,0-13.4,0.8-19.1c0.9-6.6,2.8-13,3.8-19.8c0.9-5.9,1.4-11.1,2.9-16.8c1.5-5.4,4.8-10.5,7.2-15.8c2.7-6.1,4.2-11.2,5.7-17.6
	c2.8-11,8.2-21.2,12.5-31.5c8.8-20.6,16.7-42.6,29.1-62.4c1.4-2.1,2.7-4.4,3.8-6.8c10.6-7.8,22.5-13,25.9-15.3
	c9.6-6.6,38.4-28,43.5-32.8c4.8-4.4,8.8-8.2,15-10.2c5.4-1.8,27-11,32.8-13.4c11.7-4.8,18.6-14.8,28.8-21
	c10.5-6.3,22.4-7.7,33.7-11.1c12.1-3.5,44.7-34.6,51.3-42.7c3.5-4.4,35.6-43.8,35-54.2c9.2-0.5,13.6,25.8,13.8,31.8
	c2.3-3.7,0.6-14,0.6-18.7c1.3,2.1,3.2,4.8,4.7,7.1c0.3-2.8-1.4-5.3-0.6-8.1c3.9,1.8,6.1,7.2,6.8,11.1c2.7-5.9,0-17.4-3.2-22.5
	c5.6,3,6.4,6.3,9.9,11.1c-0.4-4.7-2.8-9.3-3.8-14.1c3.4,0.9,4.2,5.2,5.8,7.5c1.9-6.2-6.1-12.5-4.3-18.7c2.3,1.3,3.7,3.5,5.8,4.8
	c-0.8-5.1-3.3-13.3-8.7-15.8c4-0.5,6.4,2,8.7,4.5c-0.8-1.6-1.6-3.3-2.1-5.2c3.4,0.9,5.1,5.6,8.2,5.9c1.3-5.7-7.7-11.7-8.1-17.3
	c4.5,2.4,8.3,6.1,11.1,9.7c0.3-2.5,0.6-6.1-0.5-8.2c1,0.4,2.4,0.5,3.5,1.3c0.1-0.8,1-1.4,1.1-2.1c0.6,0.6,2,0.8,2.7,1.4
	c0.8-7.1,1.4-15.5-2.7-21.5c-2.3-3.3-8.3-14.1-11-17.8c8.5,1.6,13.4,11.1,18.4,19.2c1.6-2.7,1.1-7.7-0.6-10.2c0.6,0,1.4-0.3,2.1-0.3
	c0.4-3-0.3-5.7-1.1-8.3c2,0.3,3.5,1.9,4.9,3c0-5.3-2.8-13.1-5.7-17.6c1.6,1.3,3.7,3,5.7,3.8c-2.1-6.1-5.7-11.7-8-17.6
	c5.1-0.4,8.3,4.9,12.6,5.3c-0.8-2.7-4.7-8.5-6.8-10.2c0.8,0.3,1.6,0.1,2.3,0.3c-1.6-1.9-2.7-4.7-4.2-6.8c3.8,1.1,7.5,2,11,4.4
	c-0.4-5.9-6.4-6.9-9.7-11c2.5-0.3,5.9-0.6,8.2,0.5c-2.7-3.5-8.5-7.8-13.4-7.5c4.9-2.5,12.5-1.1,17.9-1.8c-1.5-2.3-6.2-4-8.2-5.8
	c2.3-0.3,4.5,0.1,6.6-0.8c-2.9-1.1-5.6-3.8-8.7-4c3.9,0,8.2-0.8,11.1,2.1c0-4.2-9.6-8.2-14.7-9c1.3-0.1,2.5-0.5,3.3-1.4
	c-3-1.3-5.7-3.5-7.5-6.2c1,0.4,2.5,0.3,3.7,0.5c-1.1-2.1-4.7-4.4-7.3-4.4c4.4-3.3,13.6,0.3,17.9,0.6c-4-6.1-12.6-6.4-17.4-10.5h12.3
	c-3.7-0.6-10.2-5.2-10.6-9.1c2.7,0.9,5.3,4,8.2,3.5c-1.8-3.9-4.2-6.9-8.1-9.1c2.7,1.1,5.8,1,8.6,0.6c-1.9-3.9-9.1-7.5-13.3-6.7
	c2.8-0.3,5.9-0.8,7.8-3c-2.1-0.9-4-1.4-6.4-1.6c0.3-1.6,1.6-2.3,3.7-2.3c-2-2.1-6.6-1.4-9.6-1.3c3.3-1.9,6.6-3.7,8.8-6.7
	c-10.9-1.1-19.1,9.9-28-1.5c5.1,0.4,24.8-10.2,16.2-14.5c7.1-0.9,16.4-0.8,22-5.4c-1-0.8-2.4-1.6-3.7-2.3c7.1,0.1,13.4-1.6,19.6-3.8
	c5.8-2,14-8.8,3.2-9.2c1.3-4.7,13.1-10.4,17.3-14.5c5.3-5.3,11.2-13.3,6.9-21.1c-0.9,0.5-2.5,0.3-3.5,0.5c0.4-2.3,0.3-14,0.3-14
	s-7.5,11.2-9.3,13.4c-3.7,4-6.9,5.6-12.4,4.5c-3-0.6-12-0.9-11.4-5.2c10.6-1,17.7-4.3,24.5-13c2.9-3.7,5.8-8.1,7.7-12.3
	c1.5-3.3,5.1-9.2,4.2-12.9c-3.8,2.7-8.6,5.4-12.8,7.6c-0.1,0.6-0.8-4.8,0-4.9c0,0,9.5-5.4,12.3-7.8c2.5-2.3,4.2-4.9,6.3-7.7
	c4-5.3,8.8-10.5,12.9-16.2c5.1-7.1,9.9-14.9,10.5-23.6c0.1-2.3,0.6-11.2-2.9-10.5c-2.3,0.4-4.9,7.6-5.6,9.5c0-2.9,1-12-2.9-11.9
	c-2.3,5.8-13.4,17.9-21.1,16.7c1.4-2.9,22.5-21,25.5-31.7c-6.2,4.8-12,6.6-19.8,7.3c-3.7,0.4-7.5,0.9-11.4,0.8
	c-4.3-0.1-6.7-1.6-10.5-3c16.7,0.1,37.5-8,48.4-21.5c5.9-7.5,10.1-13.8,10.1-23.5c0-8-6.1-19.5-6.1-19.5s14.8-21.2,18.3-30.8
	C1324.4,343.4,1324.4,338.6,1321.1,333.6z"/>
</svg>
