<?xml version="1.0" encoding="utf-8"?>
<!-- Generator: Adobe Illustrator 21.1.0, SVG Export Plug-In . SVG Version: 6.00 Build 0)  -->
<svg version="1.1"
	 id="svg15" xmlns:cc="http://creativecommons.org/ns#" xmlns:dc="http://purl.org/dc/elements/1.1/" xmlns:rdf="http://www.w3.org/1999/02/22-rdf-syntax-ns#" xmlns:svg="http://www.w3.org/2000/svg"
	 xmlns="http://www.w3.org/2000/svg" xmlns:xlink="http://www.w3.org/1999/xlink" x="0px" y="0px" width="163px" height="166.9px"
	 viewBox="0 0 163 166.9" style="enable-background:new 0 0 163 166.9;" xml:space="preserve">
<path id="path7" d="M73.5,47.1c-5.4,0-4.2-1.4-7.6-2.8c-5.1-2-5.1-1.9-10.6-2.3c-3.1-0.2-1.2-0.9-7.9-0.8c-6.8,0-7.5-1.6-14.7,1.3
	l-3.2,1.3c-1,0.5-1.5,1.1-2.6,1.6c-0.6,0.3-0.8,0.3-1.5,0.7l-3,1.2c-1.6,0.8-2.4,2.1-3.5,3.2c-0.9,1-1.5,1.1-2.4,1.8
	c-1.4,1.2-2.8,3.4-3.3,5.1c-0.7,2.4-0.6,5.3-1.2,7.5c-0.6,2.2-0.6,1.3-0.3,3.7c0.2,2.1,0.3,3.7,0.8,5.7l0.9,5.6
	c0.2,1.2,0.2,2.9,0.5,4L16.8,94c0.7,2.3,0.3,5.3,1.1,7.6c1.8,5.2,0.6,5.6-0.7,10.8l-1.1,8.1c-0.1,1.5,0.1,3-0.1,4.4
	c-0.3,1.5-0.7,4.2-0.5,5.8c0.1,0.9,0.3,1,0.3,1.9c0.3,3.2-0.8,1.3,0.2,6.8c0.1,0.7,0.1,0.5,0.1,1.2c0,1-0.2,0.8,1.3,2.7
	c0.5,0.6-0.1,0.2,0.8,0.6l5.1,2.5c6.9,4.1,4.7,1.9,8.3,3.5c2,0.9,3.7,2.5,5.9,2.8c1.4,0.2,1.5,0.1,2.6,0.5c1,0.4,1.2,0.6,2.2,0.9
	c1.3,0.3,3.9,0.9,3.9-1.4c0-0.5-1-1.6-1.4-2.3c-2-3.3,0.5-2.4,2.5-2.5c1.3-0.1,2.8,0.1,2.8-1.2c0-1.7-1.8-2-3-2.6
	c-1.4-0.8-2.3-0.8-3.6-2.1c-2.2-2.2-5.5-2.2-5.5-6.2c0-1.3,2-6.7,2.9-8c0.9-1.3,1-4.8,1.4-7c1.2-6.1,0.7-4.8,1-10.2
	c0.1-1.8,0.3-0.7-0.1-2.1c-0.7-2.4,0.6-4.7,1.2-6.8c0.3-1,0.2-1.3,1.4-1.4c0.4,1.6,0.5,2.2,0.6,4.2c0,1.9,1,6.2,1.3,8.2
	c0.3,2,0.7,2.2,1,4c0.3,1.8,0.5,4,1.3,5.7c0.4,0.8,0.7,0.7,1.1,1.4c0.7,1.2,0.4,2.3,0.2,3.8c-0.3,1.5-0.2,3.3-0.2,4.9
	c2.2,0.5,3.9,1.6,6.3,1.8l8.3,0.5c1.1,0,1.4-0.6,1.7-0.6c7.6,0,2.6,4,9.5,4.2c2-3.7-1.7-4.2,5-3c3.9,0.7,2.6,0.1,3.9-0.4
	c0.6-0.3,5.1,1.3,5.1-0.5c0-1.6-0.8-1.7-1.7-2.3c-1.5-1-1-1.7-3.5-2.7c-2.4-1-4.6-2.4-7.2-3.2c-2.2-0.7-3.6-1.6-5.3-3.1
	c-2.7-2.4-2.3-1.8-1.4-6.6c0.4-2.2,0.5-10,0.1-11.7c-0.2-0.6-0.4-0.7-0.6-1.4l-2.8-7.9c-0.5-1.3-1.3-1.8-1.6-2.9
	c2.1,0,9.2-0.7,10.6-1.2c1.6-0.6,3.2-0.6,4.7-1.2c1.2-0.4,4.4-2.5,5.3-3.4c1.7-1.8,1.5-1.3,3.4-2.5c2-1.2,4.3-1.8,6.5-2.4
	c1-0.3,1-0.5,2.2-0.9c4.8-1.6,2.8-0.2,6.6,3.6c1.1,1.1,2.2,5.2,2.2,6.8c0,3.3-4.9,6.2-6.8,8.3c-2.2,2.5-1.7,2.8-1.7,4.5
	c-0.1,2.4-0.2,5.3,0.4,7.6c0.4,1.5,1.2,2.8,1,4.5c-0.1,0.9-0.4,1.2-0.2,2.5c0.1,0.9,0.3,1.2,0.3,2.6c0,1.8,0.2,3.2,0.7,4.9
	c1.5,6,1.8,3.3,4.1,7.1c0.4,0.7,0.6,1,0.9,1.9c0.4,1.3,0,1.2,1.1,1.7c0.8,0.4,1.2,0.2,1.7,1.1c1.4,2.3,0.3,3.6-0.4,5.7l-1.1,3.4
	c0.2,0.3,0.4,0.7,0.7,1c1.8,2.4,0.8,1.2,0.8,3.8c0,1,1.9,2.3,2.8,2.6c1.3,0.4,0-0.1,1.6-0.1c0.8,0-0.2,1.1,3.4,1.1
	c1.2,0,1.4-0.2,2.2-0.6c1.5-0.7,1.9-0.2,3.4-0.2c1.6,0-0.2-1.6,6.8-0.1c2.4,0.5,5.1,1.2,6.8-0.6l1.2-1.6c0.8-1,1.2-3.3,1.2-4.7
	c-3.2-0.9,0.1-5.2,0.1-5.2c0.7-2.3-0.1-1.6,1.4-3.9c0,0,0.1-0.1,0.1-0.2c0.5-0.8,1.7-6.5,2.1-8c0.6-2,1-3.6,1-5.7
	c0.1-4.7,2.3-4,2.5-6.4c0.2-2.9-0.3-6,0.2-8.8c0.4-2.7,0.1-5.6,0.1-8.3c0-7.1-0.9-4.8-1.3-7.6c-0.3-1.7,0-2.3-0.5-4
	c-0.4-1.5-0.4-9-0.2-10.2l-0.2-11.8c0.1-2.1,0-5.6,0.8-7.7l0.7-2.4c0.4-1.3,0.1-2.6,0.4-4.1c0.2-1,0.2-0.4,0.5-1.1
	c0.4-0.8,0.4-1.6,0.6-2.5c0.9-4-0.1-2.6,1.9-5.7c0.4-0.7,0.6-0.5,0.6-1.4c0-1.8-0.9-2.5-0.8-5c0-5.8-1.8-5-3.2-8.6
	c-0.7-1.8-0.6-2.6-1.6-4.2c-2.9-4.3,0.4-3.2-2.5-7c-1-1.3-0.7-1.3-2-2.5c-0.6-0.6-1-0.9-1.5-1.6c-3.4-4.4-4.1-3.6-8.4,0.5
	c-1,0.9-0.2,0.8-1.6,1.5c-1.6,0.9-2.9,1-4.6,1.6c-1.6,0.5-2.9,1.3-4.3,1.9c-1.9,0.8-2.6,0.5-4.3,1.8c-1.3,1-1.8,2.1-3.1,3.1
	c-1.2,0.9-2.1,1.9-3.4,2.7l-5.6,3.7c-3.2,1.6-1.8-0.2-6.1,4.5c-0.4,0.4-0.1,0.1-0.4,0.4c-1.8,1.6-4.2,2.5-5.9,4.2
	c-1.6,1.6-3.5,2.6-5.5,3.7c-2.3,1.3-1.7,1.4-4.5,1.7c-0.8,0.1-1.7,0.3-2.5,0.6C77.1,46.1,74.7,47.1,73.5,47.1L73.5,47.1z"/>
</svg>
