<?xml version="1.0" encoding="utf-8"?>
<!-- Generator: Adobe Illustrator 21.1.0, SVG Export Plug-In . SVG Version: 6.00 Build 0)  -->
<svg version="1.1" id="Capa_1" xmlns="http://www.w3.org/2000/svg" xmlns:xlink="http://www.w3.org/1999/xlink" x="0px" y="0px"
	 width="112px" height="206.3px" viewBox="0 0 112 206.3" style="enable-background:new 0 0 112 206.3;" xml:space="preserve">
<g>
	<g>
		<path d="M57.3,118c-0.3,3.6,2.1,22.5,3.4,30c0.6,3.5,2.2,9.3,1.6,12.3c-0.8,4.2-1.1,9.7-0.6,12.9c0.3,1.9,1.2,10.9-0.1,14.2
			c-0.7,1.7-1.9,10.5-1.9,10.5c-3.3,8.3-1.4,7.9-1.4,7.9c1,1.2,2.8,0.1,2.8,0.1c1.3,0.8,2.2-0.2,2.2-0.2c1.1,0.9,2.5-0.1,2.5-0.1
			c1.4,0.7,2.8-0.6,2.8-0.6c0.8,0.4,1-0.1,1-0.1c2.5-0.2-1.4-8.1-1.4-8.1c-0.9-7.1,0.9-11,0.9-11c6-17.8,6.3-22.5,3.9-29.2
			c-0.7-1.9-0.8-2.7-0.5-3.5c0.7-1.9,0.2-9.7,1.1-12.8c1.7-6,3.4-21.1,4.2-28.2c1.2-9.5-4.1-22.3-4.1-22.3
			c-1.2-5.2,0.5-23.7,0.5-23.7c2.4,3.7,2.3,10.2,2.3,10.2c-0.4,6.9,5.5,17.3,5.5,17.3c2.8,4.3,3.9,8.4,3.9,8.7
			c0,1.2-0.3,4.3-0.3,4.3l0.1,2.6c0,0.7,0.4,3,0.4,4.1c-0.4,6.9,0.6,5.6,0.6,5.6c0.9,0,1.9-5.5,1.9-5.5c0,1.4-0.3,5.7,0.4,7.3
			c0.9,1.9,1.6-0.3,1.6-0.8c0.2-8.7,0.8-6.4,0.8-6.4c0.5,7.1,1.1,8.7,2.3,8.1c0.9-0.4,0.1-8.5,0.1-8.5c1.5,4.8,2.6,5.6,2.6,5.6
			c2.4,1.7,0.9-3,0.6-3.9c-1.8-4.9-1.8-6.6-1.8-6.6c2.2,4.4,3.9,4.3,3.9,4.3c2.2-0.7-1.9-7-4.3-10c-1.2-1.5-2.8-3.6-3.2-4.8
			c-0.7-2.1-1.3-8.7-1.3-8.7c-0.2-7.8-2.2-11.2-2.2-11.2C84.6,72.3,84,62.4,84,62.4l-0.1-16.6c-1.2-11.3-9.5-11.4-9.5-11.4
			c-8.5-1.3-9.6-4-9.6-4c-1.8-2.6-0.8-7.5-0.8-7.5c1.5-1.2,2.1-4.4,2.1-4.4c2.5-1.9,2.3-4.7,1.2-4.6c-0.9,0-0.7-0.7-0.7-0.7
			C68.1,0.6,57,0,57,0h-1.7c0,0-11.1,0.6-9.5,13.1c0,0,0.2,0.8-0.7,0.7c-1.1,0-1.2,2.7,1.2,4.6c0,0,0.6,3.2,2.1,4.4
			c0,0,1,4.9-0.8,7.5c0,0-1.2,2.7-9.6,4c0,0-8.4,0.1-9.5,11.4l-0.2,16.6c0,0-0.6,9.9-3.9,15.1c0,0-1.9,3.4-2.1,11.2
			c0,0-0.6,6.6-1.3,8.7c-0.5,1.2-2,3.3-3.2,4.8c-2.4,3-6.5,9.2-4.3,10c0,0,1.7,0.2,3.9-4.3c0,0,0,1.7-1.8,6.6
			c-0.3,0.9-1.8,5.6,0.6,3.9c0,0,1.1-0.8,2.6-5.6c0,0-0.8,8.1,0.1,8.5c1.1,0.6,1.8-1,2.3-8.1c0,0,0.5-2.3,0.8,6.4
			c0,0.5,0.7,2.7,1.6,0.8c0.8-1.6,0.4-5.9,0.4-7.3c0,0,1,5.5,1.9,5.5c0,0,1.1,1.3,0.6-5.6c-0.1-1.1,0.3-3.4,0.4-4.1l0.1-2.6
			c0,0-0.3-3-0.3-4.3c0-0.3,1.1-4.4,3.9-8.7c0,0,5.9-10.5,5.5-17.3c0,0-0.1-6.5,2.3-10.2c0,0,1.7,18.5,0.5,23.7
			c0,0-5.3,12.8-4.1,22.3c0.9,7.1,2.5,22.2,4.2,28.2c0.9,3.1,0.4,10.9,1.1,12.8c0.3,0.8,0.2,1.6-0.5,3.5c-2.4,6.7-2.1,11.4,3.9,29.2
			c0,0,1.8,3.9,0.9,11c0,0-3.8,7.9-1.4,8.1c0,0,0.2,0.5,1,0.1c0,0,1.3,1.4,2.8,0.6c0,0,1.3,1.1,2.5,0.1c0,0,0.9,1,2.2,0.2
			c0,0,1.7,1.2,2.8-0.1c0,0,1.8,0.4-1.4-7.9c0,0-1.3-8.8-1.9-10.5c-1.3-3.3-0.4-12.3-0.1-14.2c0.5-3.2,0.2-8.7-0.6-12.9
			c-0.6-3,1-8.8,1.6-12.3c1.2-7.4,3.7-26.4,3.4-30l1,0.4C56.8,118.3,57.3,118,57.3,118z"/>
	</g>
</g>
</svg>
