<?xml version="1.0" encoding="utf-8"?>
<!-- Generator: Adobe Illustrator 21.1.0, SVG Export Plug-In . SVG Version: 6.00 Build 0)  -->
<svg version="1.1" id="Layer_1" xmlns="http://www.w3.org/2000/svg" xmlns:xlink="http://www.w3.org/1999/xlink" x="0px" y="0px"
	 width="1280px" height="391.5px" viewBox="0 0 1280 391.5" style="enable-background:new 0 0 1280 391.5;" xml:space="preserve">
<g transform="translate(0.000000,640.000000) scale(0.100000,-0.100000)">
	<path d="M2864,6095.9c-32-22-101-77-152-123c-142-126-161-142-168-136c-12,13,30,79,102,158c41,46,72,85,70,88
		c-14,13-131-74-233-172c-62-60-116-107-119-104c-13,14,70,131,165,231c30,31,49,57,44,57c-14,0-124-81-198-146
		c-33-29-85-84-115-123s-58-71-62-71c-30,0,45,149,116,233c32,37,54,67,51,67c-13,0-129-98-176-147c-25-26-65-72-88-101
		c-24-29-46-51-48-48c-13,12,105,190,162,246c51,49,43,58-12,13c-86-68-169-147-233-220c-35-40-66-71-68-69c-6,7,27,54,108,156
		c116,145,116,154-1,62c-82-65-147-133-199-210c-19-29-38-52-42-52c-12,0,49,108,101,179c68,96,69,100,15,54c-77-64-186-183-229-249
		c-21-32-40-61-42-63s-6-2-9,1c-6,7,71,170,116,246c17,28,28,52,23,52c-12,0-105-98-133-140c-39-58-132-172-137-167
		c-2,3,10,41,27,85c22,56,48,100,90,151c33,39,56,71,51,71c-14,0-259-257-276-290c-18-34-25-38-25-12c0,10,34,69,75,131
		c42,63,73,116,70,120c-4,3-28-17-53-45c-26-29-90-84-142-124c-55-42-105-89-118-111c-24-41-42-50-42-23c0,9,39,58,88,108
		c118,123,138,146,124,146c-7,0-53-38-103-85c-90-84-123-103-81-45c40,54,23,45-48-25c-38-38-70-66-70-62s7,24,15,44
		c18,42,18,43,5,43c-5,0-36-28-69-62l-58-62l-39,19c-81,40-246,30-359-20c-79-35-206-136-249-199c-22-32-71-86-110-121
		s-82-82-96-105s-35-57-47-76c-35-54-38-77-11-101c13-12,44-40,70-63c64-57,256-170,289-170c15,0,55-9,90-19c35-11,84-22,108-26
		s87-22,140-40c179-62,437-73,570-26c56,21,76,23,175,19c61-3,125-11,141-18l30-12l-36-13c-87-31-244-130-233-147c3-5,39,9,79,31
		c83,46,299,102,281,73c-3-5-31-14-63-21c-100-21-157-44-198-81c-22-19-59-44-82-54c-42-19-56-36-30-36c7,0,51,16,97,36
		c122,51,127,53,213,68c95,16,98,4,9-39c-34-16-62-33-62-36c0-12,106,3,151,21c54,23,129,36,129,24c-1-5-23-19-50-32
		c-63-30-64-44-2-27c174,46,405,61,479,30c19-8,44-15,54-15c32,0,21-17-23-35c-80-32-253-135-328-195c-100-80-134-89-330-88
		c-113,1-171-3-212-14c-58-16-194-86-185-95c3-2,16,1,28,8c23,12,269,27,258,16c-3-4-39-13-80-22c-135-28-228-65-293-118
		c-69-54-136-133-136-159c0-22,16-24,23-4c15,39,206,136,329,167c42,11,84,22,93,25c34,13,12-17-27-37c-126-64-279-201-325-292
		c-13-27-31-88-38-135c-17-104-17-102-6-102c5,0,16,20,25,45c21,65,99,178,176,257c51,53,95,85,198,143c73,41,140,75,148,75
		c21,0,17-18-8-31c-34-18-165-147-208-204c-56-76-69-106-96-228c-13-61-27-120-30-131c-4-12-2-16,5-12c6,4,20,38,32,76
		c11,38,34,91,51,117s46,71,63,99c18,28,59,79,91,114c64,69,197,167,202,150c2-5-21-50-52-99c-65-103-86-162-86-246c1-63,11-61,25,5
		c8,38,121,212,193,297c61,73,95,91,193,105c93,12,138,32,261,112c46,30,123,76,171,102c109,60,247,172,321,261c51,61,56,72,56,116
		v48l129-7c246-13,633,37,976,127c61,16,118,29,128,29c12,0-14-31-74-87c-112-107-182-198-205-265c-15-45-15-60-4-122
		c7-39,17-76,22-83c26-32,435-165,582-188c21-4,36-8,33-11c-2-2-62-9-133-14s-145-14-164-21c-33-11-147-116-137-126c3-2,19,3,37,12
		c28,14,212,55,249,55c31,0-6-19-69-34c-67-17-219-75-280-107c-51-26-179-154-196-196c-24-55-3-61,39-10c29,36,65,58,199,125
		c92,46,202,93,252,107c143,41,176,29,41-15c-72-23-292-129-361-173c-50-32-186-172-208-214c-17-34-21-63-8-63c4,0,28,20,52,46
		c83,84,314,229,447,280c37,14,85,35,106,46c46,24,73,19,32-7c-329-205-564-393-650-520c-30-44-55-127-55-182c0-28,17-10,43,45
		c14,32,49,81,76,109c76,78,239,211,305,250c33,19,76,49,97,66c41,35,319,191,359,202l25,6l-26-23c-15-13-59-45-99-73
		c-39-27-79-61-89-75c-18-26-71-154-71-170s27,0,40,25c7,13,58,65,113,115c90,82,116,98,245,161c79,38,151,69,160,69
		c10,0,33,10,52,23s55,29,80,36s59,19,75,26c17,7,47,16,67,20c21,3,44,13,52,21c19,19,56,141,63,209c5,47,3,54-26,88
		c-20,22-73,56-139,90c-192,98-312,136-492,157c-97,12-145,30-78,30c22,0,38,6,41,15c4,8,29,26,58,40c28,15,108,65,177,112
		c140,95,213,122,327,123c98,0,235,26,268,51c41,30,125,35,272,15c138-18,468-114,830-241c121-43,297-104,390-135
		c94-32,196-70,229-84c32-14,67-26,77-26c36,0,19-19-63-69c-46-27-157-108-246-178c-359-281-391-302-837-540c-11-6-51-24-90-41
		c-348-148-372-161-658-346c-119-78-251-161-292-185c-67-40-94-66-81-78c5-6,163,78,221,117c22,15,117,73,210,130
		c181,108,314,176,514,259c111,47,282,130,431,210c30,16,93,47,140,69c93,43,230,133,475,311c189,138,351,245,418,276l48,23l52-29
		c55-31,421-154,617-209c63-17,158-44,210-60c87-26,154-41,505-114c345-71,901-150,1255-177c97-7,278-10,485-7c358,6,456,16,750,79
		c224,49,633,191,863,300c150,71,250,147,427,324c144,144,212,242,274,394c35,84,36,90,36,221c0,123-3,143-29,220
		c-90,267-267,461-521,572c-105,46-282,81-483,94c-298,20-919-68-1392-197c-257-70-968-393-1469-667c-101-55-229-120-285-143
		c-55-23-175-74-266-112c-287-122-279-119-318-112c-61,11-160,56-369,168c-112,59-205,107-209,107c-3,0-65,29-137,64
		c-73,36-202,93-287,129c-85,35-198,86-250,112c-356,179-885,368-1385,495c-51,13-96,31-105,41c-14,17-18,17-73,2
		c-64-18-84-11-48,18c13,11,22,21,20,23s-28,0-57-5c-30-6-66-9-80-7l-27,3l35,24l35,23l-75-8c-161-16-175-7-80,49c59,35,62,38,30,33
		c-20-3-71-17-114-31s-87-25-97-25c-37,0-28,21,21,52c29,18,47,34,40,36c-17,6-115-16-174-40c-27-10-51-17-54-14c-12,12,11,37,60,65
		c41,24,48,31,29,31c-35,0-140-29-184-51c-21-11-41-18-44-15c-13,13,10,36,59,60c65,31,40,33-62,5c-41-12-100-23-130-26
		c-49-5-53-4-41,11c8,9,31,26,52,38c22,12,39,25,39,30c0,12-2,11-108-28c-127-46-120-45-127-33c-10,15,63,80,124,112
		c29,16,51,30,49,33c-7,6-171-57-238-91c-28-14-54-24-56-22c-7,6,58,56,139,107c37,23,66,44,64,47c-6,6-196-61-242-85
		c-22-12-60-34-84-51c-48-32-68-32-51,0c13,24,75,69,158,116c35,19,61,37,59,40c-3,2-63-17-133-43c-198-72-204-73-204-68
		c0,3,41,32,92,64c51,33,89,60,84,60c-20,0-154-44-188-61c-40-20-73-25-63-9c3,5,44,30,91,56c47,25,83,48,80,51c-9,9-180-40-253-73
		c-39-17-92-46-118-64c-47-33-65-36-42-8c10,13,128,102,193,146c17,11,17,12-6,6c-78-19-232-90-284-129c-33-25-63-45-68-45
		c-31,0,91,112,205,189c27,18,46,35,44,38c-8,7-131-44-237-98c-52-27-119-69-147-95c-29-25-53-41-53-35c0,16,144,164,192,197
		c30,21,37,30,24,32c-28,6-241-116-306-175c-34-31-64-53-67-50c-6,7,116,145,178,202c22,20,38,39,35,42c-10,10-167-99-270-189
		c-56-47-102-83-104-78c-4,12,71,116,140,193c33,37,58,70,56,73C2925,6132.9,2896,6117.9,2864,6095.9z M11905,5473.9
		c86-12,182-34,249-56c96-32,118-44,179-96c159-137,259-354,243-528c-11-118-75-272-147-353c-42-48-172-149-274-213
		c-124-79-443-204-615-243c-30-7-86-21-124-32c-108-31-210-46-511-78c-408-44-720-38-1085,21c-264,42-369,60-421,75
		c-30,8-142,37-249,65s-226,59-265,69c-89,24-347,114-490,172c-60,25-130,52-155,62c-25,9-56,25-69,35l-24,18l44,16
		c24,8,112,39,194,67c348,122,662,261,1150,509c313,160,342,172,555,241c124,40,311,95,415,122c355,90,429,103,790,137
		C11476,5500.9,11755,5495.9,11905,5473.9z"/>
</g>
</svg>
