<?xml version="1.0" encoding="utf-8"?>
<!-- Generator: Adobe Illustrator 18.0.0, SVG Export Plug-In . SVG Version: 6.00 Build 0)  -->
<!DOCTYPE svg PUBLIC "-//W3C//DTD SVG 1.1//EN" "http://www.w3.org/Graphics/SVG/1.1/DTD/svg11.dtd">
<svg version="1.1" id="Слой_1" xmlns="http://www.w3.org/2000/svg" xmlns:xlink="http://www.w3.org/1999/xlink" x="0px" y="0px"
	 viewBox="0 36 1024 712" enable-background="new 0 36 1024 712" xml:space="preserve">
<path fill="#000000"      d="
	M154.6,313.2c0,0,21.1,1.2,24.7-1.8c0,0,10.6,14.7,21.7-2.9c0,0,18.8-5.3,22.9-13.5c0,0,45.8,3.5,51.7-9.4c0,0,4.1,49.9,17,49.9
	c0,0,10,0.6,11.7-2.9c0,0,27-2.3,34-15.3l11.7-5.3c0,0,0.6,65.2-11.2,86.9c0,0-17.6,39.3-28.2,96.3c0,0-13.5,54-20,64
	c0,0-16.4,36.4-15.3,49.9c0,0-1.8,15.8-4.7,18.2c0,0-3.5,4.7,1.2,5.3c0,0-7.6,11.7-1.8,12.9c0,0-4.7,13.5,0,14.1
	c0,0-12.3,28.8-20,34c0,0-33.5,22.3-18.8,33.5c0,0,21.1,12.9,100.4,5.9c0,0,11.2-15.9-4.1-31.7c0,0-5.9-6.5-5.9-12.3
	c0,0,2.3-5.9,1.2-15.9c0,0,7.6-6.5,10.6-22.9c0,0,29.2-66.2,39.9-81l43.4-58.7c0,0,8.8-8.8,11.2-13.5c0,0,13.5-10.6,15.3-17.6
	l4.7-7.6c0,0,29.9,85.7,36.4,96.3c0,0,15.3,65.7,21.1,72.2c0,0,2.9,12.3,7,12.3c0,0,0.6,9.4,4.1,10c0,0,1.8,11.7,4.7,12.3
	c0,0-2.9,4.7-1.2,6.5c0,0-6.5,19.4-11.7,22.9c0,0-39.9,20-20,36.4c0,0,42.3,7.6,108.6-1.2c0,0,11.7-24.1-14.1-37.6
	c0,0-1.2-12.9-3.5-16.4c0,0-2.3-21.1-1.2-22.9c1.2-1.8,4.7-17.6,1.2-29.4c0,0-22.3-92.8-20-106.8c0,0,1.8-18.8,0-23.5
	c0,0,2.9-31.1,1.2-41.1l1.2-12.9c0,0,7-11.2,8.2-16.4c0,0,37.6,34.6,150.3,34.6c0,0,25.2,34,41.7,47c0,0,20,34.6,18.8,51.1
	c0,0-1.2,65.8-0.6,72.2c0,0-3.5,28.2-8.8,32.9c0,0-20.5,20.5-21.1,24.7c0,0-32.3,13.5-6.5,32.9c0,0,16.2,7.1,71.6,2.3
	c9.4-0.8,22.3-1.8,29.4-5.3c0,0,12.9-32.3,2.9-83.4c0,0-8.2-83.9-2.9-96.3l6.5-30.5c0,0,16.4,11.7,34.6,23.5l19.5,33.4
	c0,0,20.2,62.6,22.9,68.5c0,0,5.8,27.8,2.4,34c0,0-12.8,26.1-12,30.2c0,0-26.2,23.3,4.6,33.2c0,0,17.6,1.4,68.5-21
	c8.7-3.8,20.5-8.9,26-14.5c0,0,1.7-34.7-24.3-79.8c0,0-35-76.7-34.1-90.1c0,0-2.5-48.4-1.3-53.6c0,0,17.6,38.7,18.2,57.5
	c0,0-7,70.4,38.7,88.6c0,0-30.5-22.3-26.4-67.5c0,0,2.9-21.1-6.5-44.6c0,0-28.8-52.8-22.3-82.8c0,0,2-50-3.9-75.2
	c0,0,2.7-76.2-16.7-93.8c0,0-19.4-24.7-21.1-29.3c0,0-78.7-131.5-158.5-146.2c0,0-35.2-9.4-113.9,10c0,0-42.9,1.8-109.2-24.7
	c0,0-44.6-15.3-49.9-15.3c0,0-40.5-28.8-85.7-3.5c0,0-75.7,1.2-88.1,8.2c0,0-54-5.9-62.2-0.6c0,0-33.5-7-49.9,16.4
	c0,0-21.7,11.2-30.5,27.6c0,0-22.3,27-22.9,32.3c0,0-22.3,22.9-22.9,39.3c0,0-13.5,17.6-11.2,22.3c0,0-22.3,32.9-20,38.7
	c0,0-16.4,20-12.9,28.2c0,0-16.4,27.6-9.4,31.1c0,0-8.2,11.7-7,22.3c0,0-28.8,9.4-48.7,4.1c0,0-22.9-1.2-4.1,10.6
	c0,0,19.4,7.6,25.2,7.6l-23.5,0.6c0,0-17.6-1.2,2.3,10.6c0,0,29.9,8.8,39.9,6.5l1.8,4.1c0,0-3.5,27.6,2.9,29.4c0,0,0,29.9,5.9,30.5
	c0,0,2.3,20,8.8,21.1c0,0,2.9,18.2,9.4,20c0,0,6.5,14.7,10.6,15.3c0,0,5.9,15.9,10.6,15.9c0,0,10.6,11.7,16.4,11.2
	c0,0,49.3,32.3,84.5-2.3c0,0,28.2-27.6,8.8-59.3c0,0-14.1-33.5-33.5-21.1c0,0-10,9.4,2.3,7.6c0,0,1.8,5.9-2.9,6.5c0,0-7,5.3,1.2,8.8
	c0,0,17,19.4-9.4,28.2c0,0-25.8,5.3-35.2-28.2c0,0-5.3-21.7-6.5-20c0,0-1.2-15.9-2.9-15.3c-1.8,0.6,2.3-24.7-0.6-23.5
	c0,0,4.7-21.1,2.3-21.1c0,0,5.9-21.1,9.4-24.7C139.4,340.2,154.1,319,154.6,313.2z"/>
</svg>
