<?xml version="1.0" encoding="utf-8"?>
<!-- Generator: Adobe Illustrator 21.1.0, SVG Export Plug-In . SVG Version: 6.00 Build 0)  -->
<svg version="1.1" id="Layer_1" xmlns="http://www.w3.org/2000/svg" xmlns:xlink="http://www.w3.org/1999/xlink" x="0px" y="0px"
	 width="68px" height="34px" viewBox="0 0 68 34" style="enable-background:new 0 0 68 34;" xml:space="preserve">
<style type="text/css">
	.st0{fill:#010101;}
</style>
<g id="Layer_1_1_">
</g>
<g id="Bear_Black_Shape">
</g>
<g id="Camel_Silhouette">
</g>
<g id="Dog_And_Cat_Friends_Walking_Side_By_Side">
</g>
<g id="Halloween_Black_Cat">
</g>
<g id="Black_Cat_Shape">
</g>
<g id="Cheetah_Feline_Silhouette">
</g>
<g id="Chicken">
</g>
<g id="Baby_Chicken_And_Half_Egg_Shell">
</g>
<g id="Deer_Silhouette">
</g>
<g id="Deer_Silhouette_1_">
</g>
<g id="Dog_Side_Silhouette_With_Curled_Tail">
</g>
<g id="Dog_Shape">
</g>
<g id="Fox_Shape">
</g>
<g id="Horse_Standing_On_Three_Paws_Black_Shape_Of_Side_View">
	<g>
		<path class="st0" d="M56,6.8c3,2,5.4,4.6,7,7.9c-1.5,3-7.4,1.6-10.7,2.8c-0.5,0.9-1.7,1-2.3,1.8c0.9,1.6,4.4,0.4,4.8,2.4
			c-1.6,0.4-3.1,0.6-4.8,0.1c-0.8-0.2-1.4-1-2-1.1c-2.2-0.4-4.7,0.7-7.1,0.9c-2.1,0.1-3.9-0.1-6,0.2c1.4,0.1,3,0,3.7,0.7
			c-0.3,0.7-0.9,0.7-1.3,0.7c-2.2,0.3-5.1-0.5-7.8-0.6c-0.7,0-1.4,0-2.2,0c-3.8-0.2-7.7-1.4-11.1-1.3c-3.3,0-7.6,0.5-9.8,1.7
			c-0.7,0.4-2.1,1.7-1.9,2.7c0.3,1.4,5.2,1.6,6.6,1.7c2.5,0.1,5-0.1,7.6,0.2c1.8,0.2,7.3,1.3,6.7,3.7c-0.2,0.9-1.6,1-2.9,1.1
			c0-0.8,1.2-0.5,1.2-1.5c0.1-1.4-3.1-1.8-4.9-2.1c-3.1-0.5-5.7-0.5-8.8-0.6s-9-1-6.3-5c2.3-3.4,9.2-2.5,13-4.4
			c1.8-0.9,3.6-4.2,4.5-6c1.1-2.2,2.9-4.4,4.8-5.4c2-1.1,4.7-1.1,7.6-1.2c1.9-0.1,3.8-0.6,5.7-0.6c2.9-0.1,5.7,0.8,8.2,0
			c-0.9-3.9,3-4.5,3.6-1.5C51-1.4,58.1,3.1,56,6.8z"/>
	</g>
</g>
<g id="Rat_Silhouette">
</g>
<g id="Owl_Bird_Shape">
</g>
<g id="Coliss_Logo">
</g>
<g id="Skunk_Silhouette">
</g>
<g id="Wallaby_Mammal_Animal_Silhouette">
</g>
</svg>
