<?xml version="1.0" encoding="utf-8"?>
<!-- Generator: Adobe Illustrator 21.1.0, SVG Export Plug-In . SVG Version: 6.00 Build 0)  -->
<svg version="1.1" id="Layer_1" xmlns="http://www.w3.org/2000/svg" xmlns:xlink="http://www.w3.org/1999/xlink" x="0px" y="0px"
	 width="1000px" height="540px" viewBox="0 0 1000 540" style="enable-background:new 0 0 1000 540;" xml:space="preserve">
<g>
	<g transform="translate(0.000000,511.000000) scale(0.100000,-0.100000)">
		<path d="M4676.7,4792c-22.4-61.2-2-189.7,61.2-412c40.8-146.9,73.4-565,71.4-962.7c0-199.9-6.1-250.9-46.9-340.6
			c-24.5-57.1-65.3-122.4-91.8-146.8c-51-46.9-271.3-130.5-870.9-328.4c-613.9-203.9-946.3-350.8-1466.4-652.6
			c-314.1-183.6-509.9-320.2-728.1-507.9c-148.9-130.5-365.1-361-407.9-440.5c-14.3-26.5-38.8-24.5-199.9,4.1
			c-201.9,36.7-393.6,20.4-491.5-44.9l-51-32.6l71.4-81.6c59.1-65.3,73.4-95.9,73.4-165.2c0-130.5-65.3-236.6-291.7-477.2L100-15.1
			L216.3-2.9c136.6,14.3,436.5,159.1,599.6,291.7c173.4,140.7,242.7,167.2,479.3,181.5c246.8,16.3,597.6,73.4,875,144.8
			c106.1,28.6,446.7,102,754.6,165.2c546.6,110.1,573.1,112.2,1060.6,132.6c522.1,20.4,703.6,14.3,1009.6-34.7
			c212.1-34.7,669-63.2,1299.2-83.6l440.5-12.2l-28.5-67.3c-38.8-93.8-95.9-450.7-81.6-507.9c6.1-28.5,36.7-77.5,65.2-112.2
			c71.4-85.6,169.3-85.6,340.6,0c332.4,169.3,613.9,424.2,787.3,713.8l91.8,153l234.6,75.5c130.5,40.8,469.1,144.8,754.6,228.4
			c575.1,171.3,724,224.3,813.8,297.8c71.2,57,187.5,267.1,187.5,336.4c0,83.6-79.6,263.1-155,350.8
			c-91.8,108.1-438.5,340.6-583.3,391.6c-522.1,183.6-1501.1,332.4-2543.3,387.5c-507.8,26.5-660.8,65.3-840.3,206
			c-61.2,46.9-104,124.4-232.5,409.9c-281.5,630.2-412,856.6-613.9,1076.9c-89.7,95.9-128.5,122.4-173.4,122.4
			C4711.4,4845,4693.1,4832.8,4676.7,4792z M8721.2,2148.7c63.2-28.5,130.5-77.5,148.9-106.1c32.6-48.9,32.6-57.1,2-104
			c-126.4-191.7-803.6-36.7-736.3,171.3C8170.5,2224.2,8507,2246.6,8721.2,2148.7z M9408.5,1763.3c252.9-30.6,369.2-59.2,369.2-89.7
			c0-32.6-97.9-110.2-214.2-169.3c-44.9-22.5-334.5-114.2-642.5-206c-308-91.8-656.7-197.8-775-236.6
			c-116.3-38.8-214.2-67.3-216.2-65.3c-10.2,12.3,144.8,336.5,181.5,377.3c95.9,104,444.6,303.9,666.9,383.4
			C8921,1808.1,9014.8,1808.1,9408.5,1763.3z M4803.2,1693.9c240.7-71.4,375.3-142.8,424.2-220.3c83.6-134.6,79.5-232.5-8.2-336.5
			c-28.6-34.7-44.9-67.3-36.7-71.4c48.9-28.6,1256.3-136.6,1529.7-136.6h106.1l-32.6-59.2l-34.7-57.1l-367.1,8.2
			c-620,12.2-1154.4,44.9-1437.9,87.7c-293.7,44.9-587.4,49-1144.2,22.4c-283.5-14.3-424.2-34.7-901.5-130.5
			c-310-63.2-613.9-128.5-673.1-144.8c-222.3-65.2-626.1-136.6-852.5-153c-128.5-10.2-238.6-12.2-244.7-8.1
			c-6.1,6.1,22.4,34.7,61.2,67.3c69.3,57.1,69.3,57.1,120.3,18.4c26.5-20.4,59.1-38.8,73.4-38.8S1656.2,613,1958,702.7
			c328.4,95.8,689.4,185.6,901.5,226.4c195.8,34.7,397.7,77.5,448.7,91.8c53,16.3,187.6,32.6,299.8,38.8l204,8.1l24.5,85.7
			c14.3,49,20.4,93.8,16.3,102c-16.3,26.5-187.6,59.2-414,81.6c-242.7,22.4-289.6,42.8-289.6,114.2c0,65.3,59.1,89.7,383.4,169.3
			c312.1,75.4,609.8,116.2,923.9,120.3C4591.1,1744.9,4670.6,1732.7,4803.2,1693.9z"/>
	</g>
</g>
</svg>
