<?xml version="1.0" encoding="utf-8"?>
<!-- Generator: Adobe Illustrator 18.1.1, SVG Export Plug-In . SVG Version: 6.00 Build 0)  -->
<svg version="1.1" id="Слой_1" xmlns="http://www.w3.org/2000/svg" xmlns:xlink="http://www.w3.org/1999/xlink" x="0px" y="0px"
	 viewBox="0 0 1024 347.028" enable-background="new 0 0 1024 347.028" xml:space="preserve">
<path fill="#000000"      d="
	M981.107,207.718c0,0-17.688-32.613-41.457-40.352l-3.869-2.764l-12.161-1.105l10.502-3.869l21.558-17.136l27.085-32.613
	l-7.186-0.553l10.502-3.869c0,0,10.502-14.372,16.583-14.372l-3.317-2.211c0,0,12.161-8.291,13.819-10.503
	c0,0-23.769,1.658-51.407,11.608c0,0-19.347,8.291-53.065,30.402c0,0-42.01,28.191-54.171,29.849c0,0-10.993-1.58-26.275-3.853
	c2.715-1.809,7.245-3.389,13.732-1.09l-10.777-4.913c0,0-5.146,1.32-8.793,5.132c-6.662-0.997-13.905-2.093-21.272-3.226
	c3.527-1.85,8.797-3.016,15.935-0.487l-13.7-6.245c0,0-5.626,1.438-10.141,5.508c-5.801-0.904-11.572-1.817-17.095-2.71
	c3.339-2.162,8.465-3.8,15.783-1.958l-14.226-4.931c0,0-4.859,1.743-8.862,5.695c-7.369-1.22-14.041-2.373-19.407-3.379
	c3.404-2.371,9.678-4.883,18.676-1.056l-13.29-7.075c0,0-7.5,1.432-12.471,6.722c-0.597-0.129-1.168-0.255-1.686-0.374
	l-16.288-3.406c4.65-1.999,11.413-3.204,19.604,0.279l-17.136-7.929c0,0-6.593,1.258-11.971,5.663l-35.013-7.321
	c0,0,3.869-3.869,20.452-5.528c0,0-8.693-4.447-21.794-8.08c0,0-7.741-3.482-23.744-19.558c0,0-7.175-11.98-13.608-17.136
	c0,0-31.507,30.402-43.668,34.271c0,0-142.06-22.005-190.15-15.372c0,0-4.975-0.658,0-6.739c0,0-11.608,0.553-8.291-7.186
	c0,0-11.608,4.975-10.502-4.975c0,0-9.397,0-7.186-11.608c0,0-10.502,0-10.502-10.503c0,0-7.186,7.186-9.95-8.844
	c0,0-7.739,5.528-10.503-7.186c0,0-8.291,3.869-9.397-8.291c0,0-6.633,11.055-8.291-7.186c0,0-7.739,7.186-11.055-4.422
	l-9.397,22.663c0,0-6.633,3.869-6.633-3.317c0,0-18.794,54.723-18.241,64.12c0,0-90.653,14.925-181.858,43.668
	c0,0-51.407,21.005-54.171,22.11s-29.849,8.291-32.955,21.899c0,0,24.663,7.397,34.613,17.347c0,0,1.106,3.317-11.055,5.528
	c0,0-20.03,3.317-23.558,6.633c0,0-3.116,1.132-7.397,1c0,0-1.106,10.608,12.161,11.161c0,0,39.799,13.925,75.728,14.477
	c0,0,27.085,2.106,35.377,6.528c0,0,36.482,9.397,44.221,9.397c0,0,82.361,14.372,94.522,12.714c0,0,6.633,61.357,13.819,64.673
	c0,0,4.975,7.739,7.186,8.844c0,0,7.739-3.317,9.95-8.291c0,0,13.266-8.291,13.266-17.136c0,0,8.822-9.397,8.833-16.03
	c0,0,3.858-10.502,0-13.266l-25.968-15.477c0,0,100.05,12.714,157.537,3.317c0,0,46.985-4.975,114.422-22.11
	c0,0,24.874-2.211,28.744-6.633c0,0,14.925-4.422,22.11,8.291c0,0,17.136,26.533,31.507,29.296c0,0,4.422-1.658,3.869-7.186
	c0,0,6.633-4.422,5.528-11.055c0,0,5.528-3.317,5.528-9.95c0,0,4.975-2.211,6.633-6.633c0,0,2.211-2.764,3.869-6.633
	c0,0,2.764-0.553,6.08-4.422c0,0,5.528-4.422,7.739-8.844l9.397-4.422c0,0-19.347-0.553-25.427-2.764l25.427-6.633
	c0,0,1.112-0.318,3.11-0.886c3.56,3.236,8.026,4.378,8.026,4.378l10.777-4.913c-6.331,2.244-10.795,0.793-13.53-0.96
	c4.903-1.386,11.691-3.295,19.705-5.523c3.563,3.251,8.047,4.396,8.047,4.396l10.777-4.913c-6.324,2.241-10.786,0.796-13.521-0.954
	c5.899-1.633,12.307-3.395,18.999-5.216c3.645,3.774,8.745,5.084,8.745,5.084l10.777-4.913c-7.05,2.498-11.786,0.417-14.395-1.563
	c8.1-2.193,16.509-4.442,24.85-6.63c3.646,3.792,8.768,5.106,8.768,5.106l10.777-4.913c-7.029,2.491-11.758,0.429-14.371-1.545
	c7.826-2.036,15.51-3.992,22.739-5.773c3.531,3.12,7.855,4.232,7.855,4.232l10.777-4.913c-5.985,2.121-10.301,0.94-13.066-0.676
	c20.245-4.887,35.885-8.057,38.925-7.043l16.03,8.291l55.829,32.613c0,0,56.836,43.668,87.336,28.191
	C1017.037,244.753,986.635,222.642,981.107,207.718z"/>
</svg>
