<?xml version="1.0" encoding="utf-8"?>
<!-- Generator: Adobe Illustrator 21.1.0, SVG Export Plug-In . SVG Version: 6.00 Build 0)  -->
<svg version="1.1" id="Layer_1" xmlns="http://www.w3.org/2000/svg" xmlns:xlink="http://www.w3.org/1999/xlink" x="0px" y="0px"
	 width="71.3px" height="46.8px" viewBox="0 0 71.3 46.8" style="enable-background:new 0 0 71.3 46.8;" xml:space="preserve">
<g id="Layer_1_1_">
</g>
<g id="Bear_Black_Shape">
</g>
<g id="Camel_Silhouette">
</g>
<g id="Dog_And_Cat_Friends_Walking_Side_By_Side">
</g>
<g id="Halloween_Black_Cat">
</g>
<g id="Black_Cat_Shape">
</g>
<g id="Cheetah_Feline_Silhouette">
</g>
<g id="Chicken">
</g>
<g id="Baby_Chicken_And_Half_Egg_Shell">
</g>
<g id="Deer_Silhouette">
</g>
<g id="Deer_Silhouette_1_">
</g>
<g id="Dog_Side_Silhouette_With_Curled_Tail">
</g>
<g id="Dog_Shape">
</g>
<g id="Fox_Shape">
</g>
<g id="Horse_Standing_On_Three_Paws_Black_Shape_Of_Side_View">
	<g id="I2UpCp.tif">
		<g>
			<path d="M66.8,17.3c-0.9-1.4-1.8-2.8-2.6-4.3c-0.7-1.3-1.8-2.1-3.1-2.6c-1.8-0.8-2.9-2.1-3.2-4.1c0-0.2,0-0.4-0.3-0.6
				c-0.7,0.1-1,0.8-1.6,1.2c-1.6-0.6-3.2-1.2-5-1.4c-1.5-0.2-2.9-0.4-4.4-0.2c-0.4,0.1-0.7,0-1-0.2c-1.5-0.9-3.2-1.4-4.7-2.5
				c-1,1.1-1.8-0.8-2.8-0.2c-0.3-0.1-0.5-0.3-0.7-0.4c-4.1-0.5-8.1-0.4-12.1,0.5c-0.1,0.4,0.2,0.3,0.5,0.5C25,3,24.5,3.3,24,3.5
				C22.8,4,22.8,4,22.9,4.4c-0.3,0.1-0.5,0.2-0.6,0.2c-1,1.6-2,2.9-3.4,3.8c0.2,0.4,0.5,0,0.8,0.2c-0.2,0.5-0.8,0.6-1.1,0.9
				c-0.2,0.2,0,0.4,0,0.6c-0.4,0.6-0.9,1.1-1.2,1.9c-0.3,0.1-0.7,0.3-1.1,0.5c-0.4,0.7-1.1,1.2-1.6,1.9c-1.6,1.9-3.8,2.7-5.8,3.9
				c-2.9,1.8-5.2,4.1-6.5,7.3c-1.6,3.9,0.1,7.5,4.1,8.7c2.7,0.8,5.4,0.8,8.2,0.6s5.5,0.1,8.1,1.2c1.7,0.8,3,2.1,4.3,3.3
				c1.4,1.3,2.7,2.8,4.2,4.1c0.9,0.7,1.9,1.2,3,1.4c0.3,0.1,0.6,0.1,0.8-0.1c0.1-0.3-0.1-0.5-0.3-0.5C32,43.1,30,40.9,28,38.6
				c-3.1-3.7-7.1-5.1-11.7-5.4c-2.4-0.1-4.9,0.1-7.3-0.3c-1.3-0.2-2.5-0.6-3.6-1.5c-1.3-1.1-1.6-2.5-1-4.1c0.9-2.3,2.3-4.2,4.4-5.5
				c1.3-0.8,2.8-1.4,4.2-2c0.9-0.3,1.7-0.4,2.6,0c0.6,0.3,1.2,0.4,1.8,0.3c1-0.1,1.9,0.2,2.7,0.8c1.7,1.2,3.5,2,5.5,2.6
				c-0.2,0.4-0.7,0.4-0.8,0.9c0,0.8,0.5,1.2,1.2,1.4c1.1,0.2,2.1,0.6,3,1.1c1.3,0.7,2.6,1.3,3.2,2.8c0.1,0.3,0.4,0.5,0.7,0.8
				c0.6-0.4,0.5-1,0.7-1.6c0.4,0.5,0.7,1,1.3,1.1c0.3-0.2,0.2-0.5,0.3-0.8c0.4,0.3,0.8,0.7,1.3,0.7c0.3-0.6,0.3-1.1-0.3-1.6
				c0.2-0.2,0.4-0.3,0.5-0.4c-0.9-1.8-1.9-2.5-3.8-2.3c-1.8,0.1-3.1-0.3-4.3-1.4c1.5,0.2,2.8,0.2,4-0.1c1.4-0.3,2.6-0.7,3.5-2
				c0.3-0.5,0.9-0.5,1.4-0.5c1.5,0,3,0,4.5-0.2c0.2,0,0.5,0,0.7,0.1c1,0.9,2.6,1.1,3.3,2.4c0,0.1,0.1,0.1,0.1,0.1
				c1.8,0.8,2.9,2.3,3.2,4.3c0.7,0,0.8-0.5,1-0.9c0.3,0.3,0.4,0.7,0.8,0.9c0.4-0.3,0.4-0.6,0.4-1.1c0.4,0.2,0.7,0.5,1.1,0.4
				c0.1-0.6-0.4-1.3,0.1-1.9c-0.8-1-1.8-1.5-2.9-1.7c-1.6-0.3-2.1-1.5-1.1-2.9c1.2,0.5,2.5,0.8,3.7,1c0.4,0.6,0.8,1.2,1.3,1.5
				c0.3,0,0.2-0.4,0.5-0.4c0.2,0.2,0.5,0.4,0.8,0.6c0.3-0.1,0.5-0.4,0.8-0.3c-0.3-2-0.9-2.6-2.8-3c-0.7-0.2-1.4-0.5-1.9-1.3
				c0.7-0.6,1.5-0.7,2.3-0.8c2.4-0.1,4.8,0.4,7.1,0.9c0.6,0.1,1.3,0.2,1.9-0.1c0.2-0.1,0.4-0.2,0.6-0.1c1.2,0.4,2.3,0,3.4-0.8
				c0.1-0.1,0.2-0.3,0.3-0.6C66.8,17.8,66.8,17.6,66.8,17.3z"/>
		</g>
	</g>
</g>
<g id="Rat_Silhouette">
</g>
<g id="Owl_Bird_Shape">
</g>
<g id="Coliss_Logo">
</g>
<g id="Skunk_Silhouette">
</g>
<g id="Wallaby_Mammal_Animal_Silhouette">
</g>
</svg>
