<?xml version="1.0" standalone="no"?>
<!DOCTYPE svg PUBLIC "-//W3C//DTD SVG 20010904//EN"
 "http://www.w3.org/TR/2001/REC-SVG-20010904/DTD/svg10.dtd">
<svg version="1.0" xmlns="http://www.w3.org/2000/svg"
 width="1280.000000pt" height="640.000000pt" viewBox="0 0 1280.000000 640.000000"
 preserveAspectRatio="xMidYMid meet">
<metadata>
Created by potrace 1.15, written by Peter Selinger 2001-2017
</metadata>
<g transform="translate(0.000000,640.000000) scale(0.100000,-0.100000)"
fill="#000000" stroke="none">
<path d="M8245 6106 c-318 -138 -509 -245 -740 -418 -292 -218 -623 -547 -969
-966 -41 -50 -72 -79 -79 -75 -7 4 -49 38 -93 75 -91 76 -208 136 -376 192
-57 19 -139 51 -183 71 -92 43 -186 69 -300 85 -99 13 -144 36 -170 84 l-20
37 -67 -6 c-67 -7 -68 -7 -84 22 -15 26 -22 29 -67 28 -47 0 -53 3 -75 35 -31
46 -85 74 -130 66 -52 -8 -96 15 -126 67 l-27 45 -39 -15 c-36 -15 -41 -14
-66 2 -14 9 -33 34 -41 55 -14 36 -16 37 -50 30 -71 -17 -129 21 -171 112 -20
44 -31 58 -48 58 -62 0 -129 90 -141 188 -6 51 -6 52 -40 52 -55 0 -90 42 -99
120 l-7 63 -29 -56 c-113 -225 -256 -637 -342 -987 -21 -87 -76 -337 -76 -347
0 -2 30 -4 68 -4 l67 -1 -65 -13 c-36 -6 -103 -18 -150 -25 -504 -75 -1079
-239 -1551 -440 -378 -162 -618 -294 -1259 -693 -412 -256 -623 -415 -649
-487 -21 -62 50 -114 434 -311 145 -74 232 -125 254 -148 l34 -36 -314 -7
c-326 -7 -398 -16 -440 -54 -29 -26 -23 -46 29 -95 251 -241 1057 -586 1828
-784 463 -119 1046 -220 1539 -266 150 -14 146 -11 238 -134 40 -54 99 -162
183 -333 145 -297 212 -400 352 -539 146 -146 160 -142 202 57 33 161 67 281
105 371 61 141 87 230 93 310 7 120 -19 172 -103 203 -38 14 -35 15 95 15 324
2 773 59 1195 152 328 72 918 237 1222 342 37 12 19 23 204 -126 298 -241 595
-413 879 -510 102 -35 309 -90 380 -101 l35 -5 -30 12 c-76 30 -288 140 -367
190 -219 139 -418 346 -418 435 0 45 25 81 120 173 55 53 100 103 100 112 0
22 -38 56 -75 66 -28 7 -23 10 60 35 50 15 104 32 121 38 38 13 69 6 118 -27
33 -22 39 -24 52 -10 21 21 58 28 99 21 19 -4 35 -3 35 1 0 5 -16 26 -36 47
-19 21 -34 39 -32 40 2 2 58 19 125 38 l121 35 39 -23 c60 -37 63 -37 81 -21
10 10 41 17 75 19 l58 3 -35 41 -35 41 51 13 c29 7 90 25 137 41 l86 28 50
-28 c47 -27 52 -27 74 -13 16 11 42 15 77 14 30 -1 54 0 54 3 0 3 -16 22 -35
43 l-35 39 103 31 c57 18 107 32 113 32 5 0 26 -11 47 -26 34 -23 39 -24 53
-10 10 11 34 16 75 16 32 0 59 4 59 8 0 5 -13 21 -30 37 -16 16 -28 30 -25 33
2 2 54 21 115 42 l111 38 35 -25 c33 -22 38 -23 53 -8 12 10 38 15 80 15 l63
0 -27 36 c-15 19 -25 37 -24 38 2 2 30 12 61 24 l57 20 43 -27 c41 -26 44 -26
61 -9 13 13 33 18 79 18 l62 0 -34 35 c-18 19 -31 38 -27 41 3 4 54 23 113 44
l107 38 39 -25 c37 -22 41 -23 57 -9 12 11 37 16 74 16 31 0 57 4 57 8 0 5
-14 21 -30 37 -35 33 -35 33 57 65 59 20 63 20 95 4 18 -9 41 -23 51 -32 15
-14 19 -13 38 4 16 15 35 19 80 17 l59 -1 -28 36 c-31 42 -26 39 78 -46 110
-89 125 -111 218 -312 195 -420 647 -915 1080 -1183 93 -58 286 -158 330 -172
16 -5 -7 29 -80 117 -690 825 -919 1605 -694 2356 86 283 253 593 468 865 105
132 137 168 276 309 63 65 113 120 110 123 -10 10 -242 -77 -351 -131 -262
-131 -485 -312 -784 -635 -226 -245 -283 -323 -406 -556 -42 -78 -89 -162
-106 -187 -34 -49 -122 -131 -173 -160 -33 -20 -33 -19 10 27 23 26 42 50 42
54 0 5 -25 6 -56 5 -41 -3 -60 0 -73 13 -17 15 -21 14 -62 -13 -24 -16 -59
-33 -77 -37 -28 -6 -120 8 -145 22 -4 2 11 25 33 51 l40 47 -62 3 c-39 2 -69
9 -80 19 -16 14 -20 13 -48 -11 -57 -47 -93 -51 -200 -21 -52 15 -98 29 -102
32 -4 2 10 21 32 43 21 21 43 47 49 57 9 18 6 19 -50 15 -47 -4 -64 -1 -79 13
-18 16 -20 16 -53 -9 -49 -37 -120 -57 -160 -44 -18 5 -38 12 -46 14 -11 4
-10 8 6 19 12 8 35 33 53 55 l31 39 -66 -2 c-55 -2 -69 1 -80 17 -13 17 -15
17 -30 2 -21 -20 -69 -46 -108 -57 -26 -7 -84 6 -206 47 -11 3 -3 16 25 47 71
75 71 74 3 69 -47 -4 -64 -1 -79 13 -18 17 -21 17 -38 2 -25 -23 -103 -57
-130 -57 -18 0 -166 37 -179 45 -2 1 20 26 49 56 l51 54 -64 3 c-41 2 -70 9
-81 19 -17 15 -20 15 -41 -5 -27 -26 -91 -53 -126 -54 -14 -1 -75 14 -134 32
l-108 33 28 31 c16 17 37 41 47 54 l19 22 -59 -6 c-50 -5 -63 -3 -84 14 l-24
20 -36 -28 c-61 -48 -83 -50 -190 -18 -52 15 -103 28 -112 28 -24 0 -23 3 13
41 58 62 57 68 -11 66 -43 -2 -64 2 -76 14 -15 16 -19 15 -61 -15 -53 -37
-104 -40 -195 -12 l-58 17 40 48 c22 26 40 49 40 52 0 2 -25 2 -55 1 -40 -3
-63 1 -81 13 -24 15 -26 15 -54 -9 -55 -46 -90 -51 -193 -25 -75 18 -88 24
-73 33 107 64 135 99 121 153 -4 16 -53 75 -115 138 -129 131 -155 175 -154
260 3 241 493 819 949 1118 127 83 127 82 -10 23z"/>
</g>
</svg>
