<?xml version="1.0" encoding="iso-8859-1"?>
<!-- Generator: Adobe Illustrator 16.0.0, SVG Export Plug-In . SVG Version: 6.00 Build 0)  -->
<!DOCTYPE svg PUBLIC "-//W3C//DTD SVG 1.1//EN" "http://www.w3.org/Graphics/SVG/1.1/DTD/svg11.dtd">
<svg version="1.1" id="Capa_1" xmlns="http://www.w3.org/2000/svg" xmlns:xlink="http://www.w3.org/1999/xlink" x="0px" y="0px"
	 width="560.897px" height="560.896px" viewBox="0 0 560.897 560.896" style="enable-background:new 0 0 560.897 560.896;"
	 xml:space="preserve">
<g>
	<g>
		<path d="M429.251,142.298c-15.471-22.081-34.798-39.943-57.328-54.484c-11.325-7.307-22.207-15.688-34.354-21.261
			c-33.688-15.455-65.528-33.966-96.271-54.525C230.784,4.998,219.12,1.46,206.602,0.437c-0.869-0.069-1.73-0.29-2.595-0.437h-8.997
			c-0.849,0.171-1.693,0.416-2.55,0.501c-8.507,0.849-16.52,3.166-24.121,7.218c-15.679,8.36-27.618,20.543-37.059,35.382
			c-0.975,1.534-1.869,3.117-2.893,4.834c1.351,0.392,2.529,0.739,3.566,1.041c-2.208,3.436-3.692,7.291-4.329,11.314
			c-8.303,4.725-14.247,11.713-17.691,20.987c-1.538,2.697-2.566,5.533-3.092,8.507c-0.429,0.592-0.849,1.196-1.257,1.812
			c-0.649,0.987-2.036,1.738-3.231,2.061c-2.966,0.8-6.034,1.208-9.017,1.95c-1.155,0.29-2.187,1.065-3.276,1.616l0.306,0.82
			c3.978-0.633,7.952-1.269,12.313-1.963c-1.2,2.481-2.028,4.517-3.154,6.377c-0.502,0.829-1.51,1.6-2.444,1.869
			c-3.125,0.894-6.34,1.481-9.482,2.33c-0.93,0.249-1.734,0.967-2.595,1.464c0.131,0.306,0.261,0.612,0.392,0.922
			c4.166-0.894,8.335-1.791,12.848-2.758c-0.641,2.473-1.073,4.354-1.636,6.193c-0.151,0.498-0.596,1.114-1.044,1.273
			c-3.713,1.305-7.454,2.517-11.188,3.762v2.647c3.709-1.505,7.417-3.015,11.648-4.732c0,2.742-0.041,4.659,0.008,6.577
			c0.229,9.298,3.921,14.289,12.771,17.169c4.169,1.358,8.417,1.852,12.746,0.702c5.659-1.505,9.021-5.5,9.437-11.322
			c0.045-0.612,0.041-1.232,0.033-1.848c1.546,1.571,3.285,2.942,5.182,4.056c0.008,0.004,0.021,0.012,0.029,0.016
			c6.683,6.781,15.23,10.311,24.741,12.008c1.717,0.901,3.562,1.604,5.528,2.052c2.66,0.604,5.324,1.204,7.984,1.807
			c-0.232-0.004-0.461-0.012-0.693-0.012c0.286,1.351,2.272,4.231,5.406,8.074c-0.542,1.616-0.75,3.346-0.648,5.076
			c-3.207,7.344-5.361,15.304-6.675,23.468c-3.313,20.596-2.848,41.114,2.665,61.277c1.742,6.377,4.402,12.66,7.638,18.429
			c4.418,7.871,12.175,10.331,19.87,7.389c7.891-3.015,12.473-11.31,11.73-19.572c-1.269-14.113-2.028-28.271-2.975-42.412
			c-0.184-2.726-0.616-5.504-0.277-8.172c0.147-1.15,0.135-2.203-0.004-3.194c0.347-0.677,0.559-1.481,0.567-2.412l0.049-6.059
			c9.775,9.482,19.388,18.148,25.912,23.007c0.032-0.298,0.065-0.588,0.102-0.881c0.355,0.355,0.706,0.706,1.061,1.061
			c0.726,0.726,1.493,1.396,2.293,2.028c-0.029,0.563-0.061,1.126-0.082,1.693c-0.396,11.183-0.82,22.366-0.894,33.554
			c-0.041,6.356,0.881,12.66,3.672,18.523c4.651,9.78,14.141,12.619,23.358,6.944c6.067-3.737,10.102-9.192,13.097-15.544
			c0.383-0.812,0.75-1.628,1.126-2.44c0.894,0.698,1.791,1.391,2.685,2.089c0.318,0.314,0.645,0.612,0.971,0.906
			c0.07,0.555,0.339,1.061,0.837,1.628c7.274,8.266,14.386,16.679,21.763,24.852c11.102,12.305,22.574,24.279,33.517,36.719
			c7.862,8.939,12.306,19.512,13.46,31.547c1.738,18.1,5.802,35.799,10.074,53.439c0.122,0.516,0.143,1.074,0.362,1.539
			c3.306,6.996,0.886,12.5-3.419,18.461c-12.795,17.721-25.137,35.787-35.54,55.064c-4.844,8.973-8.54,18.373-9.286,28.699
			c-0.938,13.023,4.581,22.871,15.063,30.135c11.554,8,24.618,12.492,38.16,15.65c14.61,3.41,29.412,4.758,44.361,2.783
			c11.098-1.465,21.551-4.693,29.837-12.764c5.627-5.475,8.788-12.512,11.73-19.6c4.899-11.803,7.103-24.287,9.118-36.838
			c2.645-16.459,3.179-32.967,2.15-49.568c-0.89-14.361,1.229-28.482,3.284-42.627c3.276-22.521,5.419-45.15,6.264-67.904
			c0.677-18.176,0.403-36.324-1.188-54.439C470.75,227.839,457.469,182.567,429.251,142.298z"/>
	</g>
</g>
<g>
</g>
<g>
</g>
<g>
</g>
<g>
</g>
<g>
</g>
<g>
</g>
<g>
</g>
<g>
</g>
<g>
</g>
<g>
</g>
<g>
</g>
<g>
</g>
<g>
</g>
<g>
</g>
<g>
</g>
</svg>
