<?xml version="1.0" encoding="utf-8"?>
<!-- Generator: Adobe Illustrator 21.1.0, SVG Export Plug-In . SVG Version: 6.00 Build 0)  -->
<svg version="1.1" id="Layer_1" xmlns="http://www.w3.org/2000/svg" xmlns:xlink="http://www.w3.org/1999/xlink" x="0px" y="0px"
	 width="1280px" height="738px" viewBox="0 0 1280 738" style="enable-background:new 0 0 1280 738;" xml:space="preserve">
<g transform="translate(0.000000,985.000000) scale(0.100000,-0.100000)">
	<path d="M12462,6478.9c-173,168-187,192-233,390c-59,255-75,293-212,500c-178,268-409,516-662,711c-122,94-358,251-560,372
		c-169,101-500,270-696,355c-338,147-792,282-1079,321c-41,6-106,16-145,22c-38,6-201,13-361,16l-291,5l0,0.6
		c-25.4-1.1-50.6-0.4-75.7,1.2c-16.7-2.1-33.2-1.5-50-0.3c-6.6-3.6-14.6-5.8-23.9-5.8c-4.5,0-8.7,0.5-12.6,1.5
		c-36.8-8.3-126.8-19.5-230.7-28.2c-48.9-3.9-79.1-4.8-95.8-2.9c-52.8-12.2-107.3-22.4-160.9-24.7c-2.3-2.7-5.7-3.4-10.3-3.4
		c-10,0-85-9-168-20c-113-14-195-18-335-16c-171,3-194,6-305,35c-66,18-239,77-385,133c-365,138-551,201-715,244
		c-127,34-155,37-307,42c-150,4-174,2-237-17c-75-23-91-39-91-90c0-47,46-89,178-163c65-37,133-82,150-99c64-65,69-229,12-378
		c-27-70-44-95-124-184c-52-56-174-181-272-277c-166-163-297-285-754-705c-640-587-838-779-1094-1055c-472-511-706-836-912-1265
		c-159-334-350-840-434-1152l-22-83h-52c-79-1-269-26-396-54c-329-71-711-254-1015-485c-131-99-171-151-131-167c8-3,48-1,88,5
		c92,13,143,18,351,31c248,17,344,5,562-72c250-88,310-105,411-112c108-8,181-34,280-99c112-74,212-165,318-287
		c94-111,126-134,149-111c6,6,19,11,28,11c27,0,79,68,120,155c91,197,118,478,64,684c-37,145-134,282-252,358c-29,18-53,37-53,42
		c0,12,174,265,273,396c382,506,665,778,1119,1078c378,250,760,436,1268,617c607,216,1147,322,1790,349c673,29,2509,39,2554,14
		c12-7-9-19-92-51c-224-87-247-119-268-385c-13-157-17-177-45-235c-37-76-107-153-259-285c-155-135-229-207-246-239
		c-34-64-4-108,87-128c130-29,446,63,714,207c145,78,175,100,276,202c106,107,157,184,294,441c145,275,184,343,236,413
		c104,138,204,178,442,179c78,0,174-5,212-12c131-22,264-50,397-85c125-33,168-44,350-96c118-33,380-99,418-105c19-3,37-7,40-9
		c3-2,50-11,105-20c70-12,148-36,260-80c204-80,255-95,327-95c67,0,100,14,144,62c42,44,54,69,54,115
		C12670,6261.9,12630,6314.9,12462,6478.9z M9279,8281.9c-44-83-96-121-182-130c-134-14-287,77-287,171c0,22,4,26,30,26
		c57,0,29,55-47,94c-116,58-251,86-421,86c-147,0-215-16-263-61c-63-59-30-126,138-277c56-52,103-98,103-104c0-17-135-3-290,29
		c-121,25-155,28-325,28c-187-1-231-5-445-46c-517-100-1231-376-2157-836c-172-85-367-184-435-220c-138-73-276-145-435-230
		c-60-31-157-83-217-115c-60-32-110-58-112-56c-6,7,755,563,1151,841c607,425,1068,714,1410,882c323,159,862,356,1118,409
		c40,8.4,63.9,13.4,81.5,14.1c10.1,4.4,20.2,9.1,30,11c22.2,4.3,44.5,8.1,66.8,11.9c28.7,4.9,57.5,8.7,86.3,11.4
		c7.4,1.3,14.8,2.7,22.3,4c78.4,13.6,156.7,34.3,236.3,23.7h82.8c58,0,149-5,201-10c236-23,570-118,710-203
		C9314,8524.9,9355,8427.9,9279,8281.9z M11798,7101.9c-3-34-6-38-32-41c-23-3-38,6-82,52c-61,63-67,80-26,72c15-3,45-8,67-11
		C11785,7164.9,11802,7147.9,11798,7101.9z"/>
</g>
</svg>
