<?xml version="1.0" encoding="utf-8"?>
<!-- Generator: Adobe Illustrator 18.1.1, SVG Export Plug-In . SVG Version: 6.00 Build 0)  -->
<svg version="1.1" id="Слой_1" xmlns="http://www.w3.org/2000/svg" xmlns:xlink="http://www.w3.org/1999/xlink" x="0px" y="0px"
	 viewBox="0 0 1024 372.678" enable-background="new 0 0 1024 372.678" xml:space="preserve">
<path fill="#000000"      d="
	M550.393,113.413c0,0-30.054-10.072-38.393-31.424c0,0-9.325-16.352,5.984-40.524c0,0,10.252-17.489,29.992-31.186
	c0,0,10.475-7.252-9.266-5.237c0,0-47.941,7.252-68.085,56.804c0,0-21.755,52.373-26.589,54.387c0,0-48.747,21.755-62.847,28.201
	s-41.495,13.295-60.833,24.978c0,0-13.698,3.834-29.812,3.834l-284.425,6.64c0,0-3.626,1.624,0,3.125
	c0,0,296.108,0.904,314.237,6.544c0,0,30.618,7.252,49.553,18.532c0,0-1.209,8.46-62.847,2.014c0,0-13.295-0.806,0.403,4.834
	c0,0,60.833,23.769,111.997,36.661c0,0,34.647,10.877,41.093,10.475c0,0,30.215,76.948,80.574,100.314c0,0,5.64,3.223,15.309,2.417
	c0,0-43.913-39.884-54.79-90.645c0,0,0-6.043-2.82-8.057c0,0,75.336-1.611,174.039-14.906c0,0,6.446,2.014,22.158,21.352
	c0,0,22.964,32.632,45.121,31.827c0,0,14.503-0.806,6.043-5.64c0,0-19.741-11.683-21.352-33.035c0,0-1.612-12.489,14.1-20.949
	c0,0,7.654-4.432,13.295-9.266c0,0,31.827-6.446,38.273-8.057c0,0,11.28,9.266,19.741,9.266c0,0,10.877-2.417,11.683-4.029
	c0,0-14.503-1.611-20.546-8.057c0,0,49.553-10.475,55.596-10.475c0,0,38.675,38.272,52.373,51.164c0,0,55.999,61.639,100.314,42.704
	c0,0-11.069,3.101-44.315-30.618c0,0-22.561-26.589-29.007-51.164c0,0-6.446-18.532-0.003-37.074c0,0,12.492-42.694,41.498-71.7
	c0,0,23.769-24.172,41.093-29.007c0,0-14.906-12.489-54.79,8.057c0,0-26.186,12.892-69.696,63.25c0,0-20.949,23.769-36.661,29.409
	l-53.984-15.712c0,0,5.237-6.446,17.323-8.863c0,0-7.654-3.223-12.086-2.417c0,0-9.669,4.834-12.892,8.057
	c0,0-127.306-35.452-205.866-47.941L550.393,113.413z"/>
</svg>
